<svg width="145" height="112" viewBox="0 0 145 112" fill="none" xmlns="http://www.w3.org/2000/svg">
<path d="M137.574 69.566L144.074 111.066C135.074 99.0661 127.5 89.5 120.074 88.5661C67.4674 81.9497 59.8945 77.4434 40.4844 59.0003C21.2702 40.7433 -1.46526 -1.90378 0.074234 0.0659831C1.98438 2.50999 14.4688 5.5183 19.4844 6.50915C24.5 7.5 46.3053 8.14357 93.4844 15.0092C130.895 20.4531 139.574 52.7327 137.574 69.566Z" fill="white"/>
<path d="M139 78L144.074 110.511C141.035 92.511 115.074 64.511 85.0741 55.011L85.0741 75.011L50.5742 36.511L106.074 28.011C101.574 33.511 90.0136 42.8356 91 43C109 46 131.167 68.3333 139 78Z" fill="url(#paint0_linear_102_7)"/>
<defs>
<linearGradient id="paint0_linear_102_7" x1="97.3242" y1="110.511" x2="97.3242" y2="28.011" gradientUnits="userSpaceOnUse">
<stop stop-color="#09877F"/>
<stop offset="1" stop-color="#73C726"/>
</linearGradient>
</defs>
</svg>
