<svg width="1469" height="26" viewBox="0 0 1469 26" fill="none" xmlns="http://www.w3.org/2000/svg">
<path d="M130.688 1.84397V26H262.203V4.97872L256.053 14.844L252.505 1.84397L245.882 14.844L242.098 2.48936L238.549 15.766L227.905 0V17.1489L224.121 4.14894L216.315 17.7943V0.921986L204.488 18.5319V1.84397L192.898 17.1489L188.64 1.84397L182.49 17.7943L174.211 2.48936L170.663 18.5319L167.825 2.48936L158.126 18.5319L160.019 2.48936L151.267 18.5319V2.48936L140.386 18.5319V1.84397L136.128 18.5319L130.688 1.84397Z" fill="#73C726"/>
<path d="M0 1.84397V26H130.688V4.97872L124.577 14.844L121.051 1.84397L114.47 14.844L110.709 2.48936L107.183 15.766L96.6057 0V17.1489L92.8449 4.14894L85.0883 17.7943V0.921986L73.3357 18.5319V1.84397L61.8183 17.1489L57.5874 1.84397L51.4761 17.7943L43.2493 2.48936L39.7235 18.5319L36.9029 2.48936L27.2659 18.5319L29.1463 2.48936L20.4494 18.5319V2.48936L9.63707 18.5319V1.84397L5.40616 18.5319L0 1.84397Z" fill="#73C726"/>
<path d="M251.45 1.84397V26H382.139V4.97872L376.027 14.844L372.501 1.84397L365.92 14.844L362.159 2.48936L358.633 15.766L348.056 0V17.1489L344.295 4.14894L336.539 17.7943V0.921986L324.786 18.5319V1.84397L313.269 17.1489L309.038 1.84397L302.927 17.7943L294.7 2.48936L291.174 18.5319L288.353 2.48936L278.716 18.5319L280.597 2.48936L271.9 18.5319V2.48936L261.088 18.5319V1.84397L256.857 18.5319L251.45 1.84397Z" fill="#73C726"/>
<path d="M492.975 1.84397V26H624.49V4.97872L618.34 14.844L614.792 1.84397L608.169 14.844L604.385 2.48936L600.837 15.766L590.192 0V17.1489L586.408 4.14894L578.602 17.7943V0.921986L566.775 18.5319V1.84397L555.185 17.1489L550.927 1.84397L544.777 17.7943L536.498 2.48936L532.95 18.5319L530.112 2.48936L520.414 18.5319L522.306 2.48936L513.554 18.5319V2.48936L502.673 18.5319V1.84397L498.416 18.5319L492.975 1.84397Z" fill="#73C726"/>
<path d="M362.287 1.84397V26H492.975V4.97872L486.864 14.844L483.338 1.84397L476.757 14.844L472.996 2.48936L469.47 15.766L458.893 0V17.1489L455.132 4.14894L447.375 17.7943V0.921986L435.623 18.5319V1.84397L424.105 17.1489L419.875 1.84397L413.763 17.7943L405.536 2.48936L402.011 18.5319L399.19 2.48936L389.553 18.5319L391.433 2.48936L382.737 18.5319V2.48936L371.924 18.5319V1.84397L367.693 18.5319L362.287 1.84397Z" fill="#73C726"/>
<path d="M613.738 1.84397V26H744.426V4.97872L738.314 14.844L734.789 1.84397L728.207 14.844L724.446 2.48936L720.921 15.766L710.343 0V17.1489L706.583 4.14894L698.826 17.7943V0.921986L687.073 18.5319V1.84397L675.556 17.1489L671.325 1.84397L665.214 17.7943L656.987 2.48936L653.461 18.5319L650.641 2.48936L641.004 18.5319L642.884 2.48936L634.187 18.5319V2.48936L623.375 18.5319V1.84397L619.144 18.5319L613.738 1.84397Z" fill="#73C726"/>
<path d="M855.263 1.84397V26H986.778V4.97872L980.628 14.844L977.08 1.84397L970.457 14.844L966.672 2.48936L963.124 15.766L952.48 0V17.1489L948.695 4.14894L940.889 17.7943V0.921986L929.062 18.5319V1.84397L917.472 17.1489L913.214 1.84397L907.064 17.7943L898.786 2.48936L895.237 18.5319L892.399 2.48936L882.701 18.5319L884.593 2.48936L875.841 18.5319V2.48936L864.961 18.5319V1.84397L860.703 18.5319L855.263 1.84397Z" fill="#73C726"/>
<path d="M724.574 1.84397V26H855.262V4.97872L849.151 14.844L845.625 1.84397L839.044 14.844L835.283 2.48936L831.757 15.766L821.18 0V17.1489L817.419 4.14894L809.663 17.7943V0.921986L797.91 18.5319V1.84397L786.393 17.1489L782.162 1.84397L776.05 17.7943L767.824 2.48936L764.298 18.5319L761.477 2.48936L751.84 18.5319L753.721 2.48936L745.024 18.5319V2.48936L734.211 18.5319V1.84397L729.981 18.5319L724.574 1.84397Z" fill="#73C726"/>
<path d="M976.025 1.84397V26H1106.71V4.97872L1100.6 14.844L1097.08 1.84397L1090.49 14.844L1086.73 2.48936L1083.21 15.766L1072.63 0V17.1489L1068.87 4.14894L1061.11 17.7943V0.921986L1049.36 18.5319V1.84397L1037.84 17.1489L1033.61 1.84397L1027.5 17.7943L1019.27 2.48936L1015.75 18.5319L1012.93 2.48936L1003.29 18.5319L1005.17 2.48936L996.474 18.5319V2.48936L985.662 18.5319V1.84397L981.431 18.5319L976.025 1.84397Z" fill="#73C726"/>
<path d="M1217.55 1.84397V26H1349.06V4.97872L1342.91 14.844L1339.37 1.84397L1332.74 14.844L1328.96 2.48936L1325.41 15.766L1314.77 0V17.1489L1310.98 4.14894L1303.18 17.7943V0.921986L1291.35 18.5319V1.84397L1279.76 17.1489L1275.5 1.84397L1269.35 17.7943L1261.07 2.48936L1257.52 18.5319L1254.69 2.48936L1244.99 18.5319L1246.88 2.48936L1238.13 18.5319V2.48936L1227.25 18.5319V1.84397L1222.99 18.5319L1217.55 1.84397Z" fill="#73C726"/>
<path d="M1086.86 1.84397V26H1217.55V4.97872L1211.44 14.844L1207.91 1.84397L1201.33 14.844L1197.57 2.48936L1194.04 15.766L1183.47 0V17.1489L1179.71 4.14894L1171.95 17.7943V0.921986L1160.2 18.5319V1.84397L1148.68 17.1489L1144.45 1.84397L1138.34 17.7943L1130.11 2.48936L1126.59 18.5319L1123.76 2.48936L1114.13 18.5319L1116.01 2.48936L1107.31 18.5319V2.48936L1096.5 18.5319V1.84397L1092.27 18.5319L1086.86 1.84397Z" fill="#73C726"/>
<path d="M1338.31 1.84397V26H1469V4.97872L1462.89 14.844L1459.36 1.84397L1452.78 14.844L1449.02 2.48936L1445.49 15.766L1434.92 0V17.1489L1431.16 4.14894L1423.4 17.7943V0.921986L1411.65 18.5319V1.84397L1400.13 17.1489L1395.9 1.84397L1389.79 17.7943L1381.56 2.48936L1378.04 18.5319L1375.21 2.48936L1365.58 18.5319L1367.46 2.48936L1358.76 18.5319V2.48936L1347.95 18.5319V1.84397L1343.72 18.5319L1338.31 1.84397Z" fill="#73C726"/>
</svg>
