<svg width="330" height="316" viewBox="0 0 330 316" fill="none" xmlns="http://www.w3.org/2000/svg">
<path d="M30.9791 274.753C29.0072 262.589 38.3985 251.553 50.7214 251.553H106.164C118.696 251.553 128.14 262.946 125.817 275.26L122.498 292.855C122.044 295.258 121.154 297.558 119.871 299.64L118.905 301.207C118.168 302.403 117.306 303.519 116.335 304.535L111.995 309.073L110.788 310.062C109.222 311.343 107.472 312.379 105.595 313.135L105.079 313.342L102.171 314.244C100.254 314.838 98.2582 315.14 96.251 315.14H78.3076L58.5656 314.543C56.8607 314.492 55.1695 314.222 53.533 313.742C51.6175 313.179 49.7969 312.333 48.132 311.231L45.1075 309.229C43.5995 308.231 42.2338 307.033 41.0478 305.668L39.4846 303.869C38.5971 302.847 37.8156 301.738 37.1521 300.559L36.1004 298.69C34.9473 296.641 34.1647 294.404 33.7885 292.083L30.9791 274.753Z" fill="#D78D44"/>
<rect x="21.8638" y="247.958" width="113.78" height="16.1776" fill="#D78D44"/>
<path d="M29.9886 268.629L29.2609 264.135H127.933L127.061 268.629H29.9886Z" fill="#C68042"/>
<mask id="mask0_23_190" style="mask-type:alpha" maskUnits="userSpaceOnUse" x="-2" y="4" width="158" height="245">
<path fill-rule="evenodd" clip-rule="evenodd" d="M58.8968 91.5977L57.5594 87.1108L55.3284 82.0102L52.205 76.6878L48.6354 71.809L45.289 67.8172L41.0501 64.7125L37.7036 62.7166L32.1262 59.8336L26.3256 58.0595L18.9634 57.1724H8.03154L4.01577 57.616L0 58.7248L2.90028 62.7166L6.02365 66.4866L9.59323 70.2566L12.9397 73.8048L17.8479 78.2402L22.756 82.4537L27.6642 86.4455L33.0185 90.2155L38.596 93.0984L43.5042 95.7596L49.0816 98.199L53.8082 99.9609C55.3135 97.0522 57.0154 94.2588 58.8968 91.5977ZM51.3639 105.2L49.8605 103.976L47.764 102.622L43.0367 99.6719L41.0745 104.944L40.1943 110.037L39.9916 111.731L39.676 113.992L39.5079 116.529L39.6983 121.162L40.1606 125.786L40.7825 128.361L36.0713 125.234L27.8776 121.128L24.6645 119.934L17.4357 117.373L15.4416 124.493L14.9698 131.124L14.9419 133.308L14.84 136.232L14.9922 139.469L15.9827 145.259L17.3613 150.97L20.0842 157.498L24.7475 163.633L28.0344 166.416L32.0974 169.042L37.8969 171.254L42.8841 172.241L46.6778 172.136L48.0478 169.697L49.8824 165.834L51.2872 160.925L51.4753 159.665C47.9172 151.239 45.9529 141.995 45.9529 132.3C45.9529 122.706 47.8763 113.555 51.3639 105.2ZM88.5407 197.301L89.5303 199.03L90.6722 200.745L93.2749 200.324L94.6975 199.713C92.5999 199 90.5459 198.194 88.5407 197.301ZM147.113 66.8619L147.468 66.4866L150.591 62.7166L153.492 58.7248L149.476 57.616L145.46 57.1724H134.528L127.166 58.0595L121.366 59.8336L119.101 61.004C129.048 61.1066 138.514 63.1858 147.113 66.8619ZM91.032 66.2449L92.0377 64.4541L94.9803 55.2692L95.7081 46.3539L95.2676 38.9388L94.3842 31.5776L93.4593 27.6164L92.3665 24.1282L91.6023 21.5054L88.8666 13.6907L84.3322 5.86865L77.4342 11.7261L74.387 14.3974L66.9729 22.4881L62.6269 28.5385L59.9874 34.0348L58.3082 40.1179L57.4949 43.9483L56.8854 49.1912L57.5284 54.3752L58.6674 60.326L60.4325 66.2473L62.6412 71.3578L65.7996 76.7396L68.7712 80.3359C75.1988 74.3845 82.7308 69.5774 91.032 66.2449Z" fill="#56AA5F"/>
<path d="M58.8968 91.5977L59.7133 92.175L59.994 91.778L59.8551 91.312L58.8968 91.5977ZM57.5594 87.1108L58.5177 86.8251L58.5002 86.7663L58.4756 86.71L57.5594 87.1108ZM55.3284 82.0102L56.2446 81.6094L56.2208 81.5551L56.1908 81.504L55.3284 82.0102ZM52.205 76.6878L53.0675 76.1817L53.0419 76.1381L53.0121 76.0973L52.205 76.6878ZM48.6354 71.809L49.4425 71.2185L49.423 71.1918L49.4018 71.1665L48.6354 71.809ZM45.289 67.8172L46.0553 67.1747L45.9775 67.082L45.8798 67.0104L45.289 67.8172ZM41.0501 64.7125L41.641 63.9057L41.6029 63.8778L41.5623 63.8536L41.0501 64.7125ZM37.7036 62.7166L38.2158 61.8577L38.1898 61.8422L38.1628 61.8282L37.7036 62.7166ZM32.1262 59.8336L32.5853 58.9453L32.5051 58.9038L32.4186 58.8774L32.1262 59.8336ZM26.3256 58.0595L26.6181 57.1032L26.5333 57.0773L26.4452 57.0667L26.3256 58.0595ZM18.9634 57.1724L19.083 56.1796L19.0234 56.1724H18.9634V57.1724ZM8.03154 57.1724V56.1724H7.97648L7.92176 56.1785L8.03154 57.1724ZM4.01577 57.616L3.90599 56.622L3.8266 56.6308L3.74961 56.6521L4.01577 57.616ZM0 58.7248L-0.266159 57.7609L-1.65734 58.145L-0.809009 59.3126L0 58.7248ZM2.90028 62.7166L2.09127 63.3044L2.10995 63.3301L2.13022 63.3546L2.90028 62.7166ZM6.02365 66.4866L5.25359 67.1246L5.27473 67.1501L5.29751 67.1741L6.02365 66.4866ZM9.59323 70.2566L10.3207 69.5705L10.3194 69.5691L9.59323 70.2566ZM12.9397 73.8048L12.2122 74.491L12.2396 74.52L12.2692 74.5468L12.9397 73.8048ZM17.8479 78.2402L17.1774 78.9821L17.1868 78.9906L17.1965 78.9989L17.8479 78.2402ZM22.756 82.4537L22.1047 83.2124L22.1147 83.2211L22.1251 83.2295L22.756 82.4537ZM27.6642 86.4455L27.0332 87.2213L27.0601 87.2432L27.0885 87.2631L27.6642 86.4455ZM33.0185 90.2155L32.4428 91.0331L32.4987 91.0725L32.5594 91.1038L33.0185 90.2155ZM38.596 93.0984L39.0727 92.2193L39.064 92.2146L39.0552 92.2101L38.596 93.0984ZM43.5042 95.7596L43.0275 96.6387L43.0647 96.6589L43.1035 96.6758L43.5042 95.7596ZM49.0816 98.199L48.6809 99.1152L48.7063 99.1263L48.7323 99.136L49.0816 98.199ZM53.8082 99.9609L53.459 100.898L54.2892 101.207L54.6964 100.421L53.8082 99.9609ZM51.3639 105.2L52.2867 105.585L52.5745 104.896L51.9952 104.424L51.3639 105.2ZM49.8605 103.976L50.4917 103.201L50.4492 103.166L50.4032 103.136L49.8605 103.976ZM47.764 102.622L48.3067 101.782L48.3001 101.777L48.2933 101.773L47.764 102.622ZM43.0367 99.6719L43.566 98.8235L42.5268 98.1751L42.0995 99.3231L43.0367 99.6719ZM41.0745 104.944L40.1373 104.595L40.1049 104.682L40.0891 104.774L41.0745 104.944ZM40.1943 110.037L39.2089 109.867L39.2045 109.892L39.2014 109.918L40.1943 110.037ZM39.9916 111.731L40.982 111.87L40.9834 111.86L40.9845 111.85L39.9916 111.731ZM39.676 113.992L38.6856 113.854L38.6806 113.89L38.6782 113.926L39.676 113.992ZM39.5079 116.529L38.5101 116.463L38.5065 116.516L38.5087 116.57L39.5079 116.529ZM39.6983 121.162L38.6991 121.203L38.7003 121.233L38.7032 121.262L39.6983 121.162ZM40.1606 125.786L39.1656 125.885L39.1724 125.954L39.1886 126.02L40.1606 125.786ZM40.7825 128.361L40.2295 129.194L42.3527 130.604L41.7546 128.126L40.7825 128.361ZM36.0713 125.234L36.6243 124.401L36.5737 124.367L36.5193 124.34L36.0713 125.234ZM27.8776 121.128L28.3256 120.234L28.277 120.21L28.226 120.191L27.8776 121.128ZM24.6645 119.934L25.0129 118.996L25.0057 118.994L24.9984 118.991L24.6645 119.934ZM17.4357 117.373L17.7696 116.431L16.7613 116.073L16.4728 117.104L17.4357 117.373ZM15.4416 124.493L14.4787 124.224L14.4513 124.321L14.4441 124.422L15.4416 124.493ZM14.9698 131.124L13.9723 131.053L13.9703 131.082L13.9699 131.111L14.9698 131.124ZM14.9419 133.308L15.9413 133.342L15.9417 133.331L15.9418 133.32L14.9419 133.308ZM14.84 136.232L13.8406 136.198L13.8392 136.239L13.8411 136.279L14.84 136.232ZM14.9922 139.469L13.9933 139.516L13.9962 139.577L14.0065 139.638L14.9922 139.469ZM15.9827 145.259L14.997 145.427L15.0027 145.461L15.0106 145.493L15.9827 145.259ZM17.3613 150.97L16.3892 151.204L16.4078 151.281L16.4383 151.355L17.3613 150.97ZM20.0842 157.498L19.1612 157.883L19.2106 158.001L19.2881 158.103L20.0842 157.498ZM24.7475 163.633L23.9514 164.238L24.0177 164.325L24.1013 164.396L24.7475 163.633ZM28.0344 166.416L27.3882 167.179L27.4374 167.221L27.4916 167.256L28.0344 166.416ZM32.0974 169.042L31.5546 169.882L31.6429 169.939L31.741 169.976L32.0974 169.042ZM37.8969 171.254L37.5405 172.189L37.6197 172.219L37.7028 172.235L37.8969 171.254ZM42.8841 172.241L42.69 173.222L42.7999 173.244L42.9119 173.241L42.8841 172.241ZM46.6778 172.136L46.7055 173.135L47.2721 173.12L47.5496 172.626L46.6778 172.136ZM48.0478 169.697L48.9197 170.186L48.9364 170.157L48.9511 170.126L48.0478 169.697ZM49.8824 165.834L50.7857 166.263L50.8211 166.189L50.8438 166.109L49.8824 165.834ZM51.2872 160.925L52.2486 161.2L52.2666 161.137L52.2762 161.073L51.2872 160.925ZM51.4753 159.665L52.4643 159.813L52.5058 159.535L52.3965 159.276L51.4753 159.665ZM89.5303 199.03L88.6623 199.527L88.6792 199.556L88.6979 199.584L89.5303 199.03ZM88.5407 197.301L88.9476 196.387L86.1539 195.143L87.6728 197.797L88.5407 197.301ZM90.6722 200.745L89.8398 201.299L90.1965 201.835L90.8319 201.732L90.6722 200.745ZM93.2749 200.324L93.4346 201.311L93.5563 201.291L93.6695 201.243L93.2749 200.324ZM94.6975 199.713L95.0921 200.632L97.4843 199.605L95.0195 198.766L94.6975 199.713ZM147.468 66.4866L148.194 67.1741L148.217 67.1501L148.238 67.1246L147.468 66.4866ZM147.113 66.8619L146.72 67.7814L147.36 68.0552L147.839 67.5494L147.113 66.8619ZM150.591 62.7166L151.361 63.3546L151.382 63.3301L151.4 63.3044L150.591 62.7166ZM153.492 58.7248L154.301 59.3126L155.149 58.145L153.758 57.7609L153.492 58.7248ZM149.476 57.616L149.742 56.6521L149.665 56.6308L149.586 56.622L149.476 57.616ZM145.46 57.1724L145.57 56.1785L145.515 56.1724H145.46V57.1724ZM134.528 57.1724V56.1724H134.468L134.409 56.1796L134.528 57.1724ZM127.166 58.0595L127.046 57.0667L126.958 57.0773L126.874 57.1032L127.166 58.0595ZM121.366 59.8336L121.073 58.8774L120.987 58.9038L120.906 58.9453L121.366 59.8336ZM119.101 61.004L118.642 60.1156L119.091 62.0039L119.101 61.004ZM91.032 66.2449L91.4045 67.1729L91.7314 67.0417L91.9039 66.7346L91.032 66.2449ZM92.0377 64.4541L92.9096 64.9437L92.9592 64.8555L92.99 64.7592L92.0377 64.4541ZM94.9803 55.2692L95.9327 55.5743L95.9677 55.465L95.977 55.3505L94.9803 55.2692ZM95.7081 46.3539L96.7048 46.4353L96.7105 46.365L96.7064 46.2946L95.7081 46.3539ZM95.2676 38.9388L96.2659 38.8795L96.2641 38.8495L96.2605 38.8197L95.2676 38.9388ZM94.3842 31.5776L95.377 31.4585L95.3705 31.4039L95.358 31.3503L94.3842 31.5776ZM93.4593 27.6164L94.4331 27.389L94.4247 27.3529L94.4136 27.3174L93.4593 27.6164ZM92.3665 24.1282L91.4064 24.408L91.4092 24.4176L91.4122 24.4272L92.3665 24.1282ZM91.6023 21.5054L92.5623 21.2256L92.5549 21.2001L92.5461 21.1749L91.6023 21.5054ZM88.8666 13.6907L89.8104 13.3603L89.7792 13.271L89.7317 13.1892L88.8666 13.6907ZM84.3322 5.86865L85.1974 5.36714L84.5972 4.33177L83.685 5.10639L84.3322 5.86865ZM77.4342 11.7261L76.7869 10.9639L76.7809 10.969L76.775 10.9742L77.4342 11.7261ZM74.387 14.3974L73.7278 13.6454L73.6867 13.6815L73.6497 13.7218L74.387 14.3974ZM66.9729 22.4881L66.2356 21.8125L66.1954 21.8564L66.1607 21.9047L66.9729 22.4881ZM62.6269 28.5385L61.8147 27.9551L61.7635 28.0265L61.7255 28.1056L62.6269 28.5385ZM59.9874 34.0348L59.086 33.6019L59.0472 33.6825L59.0234 33.7687L59.9874 34.0348ZM58.3082 40.1179L57.3443 39.8518L57.3363 39.8808L57.33 39.9102L58.3082 40.1179ZM57.4949 43.9483L56.5167 43.7406L56.507 43.7864L56.5016 43.8328L57.4949 43.9483ZM56.8854 49.1912L55.8921 49.0757L55.8782 49.195L55.893 49.3143L56.8854 49.1912ZM57.5284 54.3752L56.536 54.4983L56.5401 54.5309L56.5462 54.5632L57.5284 54.3752ZM58.6674 60.326L57.6852 60.5139L57.6947 60.5634L57.709 60.6116L58.6674 60.326ZM60.4325 66.2473L59.4742 66.533L59.4911 66.5897L59.5146 66.644L60.4325 66.2473ZM62.6412 71.3578L61.7232 71.7545L61.7476 71.8109L61.7787 71.8639L62.6412 71.3578ZM65.7996 76.7396L64.9372 77.2458L64.9777 77.3149L65.0287 77.3766L65.7996 76.7396ZM68.7712 80.3359L68.0003 80.9728L68.6743 81.7884L69.4506 81.0696L68.7712 80.3359ZM77.2319 209.572L76.2346 209.499L76.2343 209.502L77.2319 209.572ZM77.232 209.571L78.2292 209.645L78.2295 209.641L77.232 209.571ZM76.2601 209.572L77.2576 209.502L77.2573 209.499L76.2601 209.572ZM76.26 209.571L75.2624 209.641L75.2627 209.645L76.26 209.571ZM37.7035 78.0184L38.3822 77.2841L38.3638 77.267L38.3444 77.2508L37.7035 78.0184ZM72.6304 60.4117L71.6347 60.3186L71.6335 60.3314L71.6327 60.3442L72.6304 60.4117ZM73.6143 49.8816L74.61 49.9747L74.6107 49.9664L74.6114 49.9581L73.6143 49.8816ZM47.3458 175.451L46.3971 175.767L46.3992 175.773L47.3458 175.451ZM47.3457 175.451L48.2945 175.134L48.2911 175.125L47.3457 175.451ZM47.3453 175.449L46.3987 175.772L46.3999 175.775L47.3453 175.449ZM46.6778 172.136L46.6497 171.136L46.0834 171.152L45.8059 171.646L46.6778 172.136ZM40.2368 155.359L41.1657 154.988L41.1604 154.975L41.1546 154.962L40.2368 155.359ZM36.9154 147.682L35.9904 148.062L35.9939 148.07L35.9976 148.079L36.9154 147.682ZM90.6524 202.602L91.6372 202.776L91.64 202.76L91.6423 202.744L90.6524 202.602ZM90.6524 202.602L89.6676 202.428L89.6647 202.444L89.6624 202.461L90.6524 202.602ZM90.6722 200.745L91.5046 200.191L91.1478 199.655L90.5124 199.758L90.6722 200.745ZM59.8551 91.312L58.5177 86.8251L56.601 87.3964L57.9385 91.8833L59.8551 91.312ZM58.4756 86.71L56.2446 81.6094L54.4122 82.4109L56.6432 87.5115L58.4756 86.71ZM56.1908 81.504L53.0675 76.1817L51.3425 77.1939L54.4659 82.5163L56.1908 81.504ZM53.0121 76.0973L49.4425 71.2185L47.8284 72.3994L51.3979 77.2783L53.0121 76.0973ZM49.4018 71.1665L46.0553 67.1747L44.5226 68.4596L47.8691 72.4514L49.4018 71.1665ZM45.8798 67.0104L41.641 63.9057L40.4592 65.5192L44.6981 68.6239L45.8798 67.0104ZM41.5623 63.8536L38.2158 61.8577L37.1914 63.5754L40.5379 65.5713L41.5623 63.8536ZM38.1628 61.8282L32.5853 58.9453L31.667 60.722L37.2444 63.6049L38.1628 61.8282ZM32.4186 58.8774L26.6181 57.1032L26.0331 59.0158L31.8337 60.7899L32.4186 58.8774ZM26.4452 57.0667L19.083 56.1796L18.8437 58.1653L26.206 59.0523L26.4452 57.0667ZM18.9634 56.1724H8.03154V58.1724H18.9634V56.1724ZM7.92176 56.1785L3.90599 56.622L4.12555 58.6099L8.14132 58.1664L7.92176 56.1785ZM3.74961 56.6521L-0.266159 57.7609L0.266159 59.6887L4.28193 58.5799L3.74961 56.6521ZM-0.809009 59.3126L2.09127 63.3044L3.70929 62.1288L0.809009 58.137L-0.809009 59.3126ZM2.13022 63.3546L5.25359 67.1246L6.79371 65.8486L3.67033 62.0786L2.13022 63.3546ZM5.29751 67.1741L8.86708 70.9441L10.3194 69.5691L6.7498 65.799L5.29751 67.1741ZM8.86574 70.9427L12.2122 74.491L13.6672 73.1187L10.3207 69.5705L8.86574 70.9427ZM12.2692 74.5468L17.1774 78.9821L18.5183 77.4982L13.6102 73.0629L12.2692 74.5468ZM17.1965 78.9989L22.1047 83.2124L23.4074 81.6949L18.4992 77.4814L17.1965 78.9989ZM22.1251 83.2295L27.0332 87.2213L28.2952 85.6697L23.387 81.6779L22.1251 83.2295ZM27.0885 87.2631L32.4428 91.0331L33.5943 89.3978L28.2399 85.6278L27.0885 87.2631ZM32.5594 91.1038L38.1368 93.9868L39.0552 92.2101L33.4777 89.3271L32.5594 91.1038ZM38.1194 93.9775L43.0275 96.6387L43.9808 94.8805L39.0727 92.2193L38.1194 93.9775ZM43.1035 96.6758L48.6809 99.1152L49.4823 97.2828L43.9049 94.8434L43.1035 96.6758ZM48.7323 99.136L53.459 100.898L54.1575 99.0239L49.4309 97.262L48.7323 99.136ZM54.6964 100.421C56.1803 97.5529 57.8583 94.7988 59.7133 92.175L58.0803 91.0204C56.1726 93.7187 54.4466 96.5514 52.9201 99.5013L54.6964 100.421ZM51.9952 104.424L50.4917 103.201L49.2292 104.752L50.7326 105.976L51.9952 104.424ZM50.4032 103.136L48.3067 101.782L47.2212 103.461L49.3177 104.816L50.4032 103.136ZM48.2933 101.773L43.566 98.8235L42.5073 100.52L47.2346 103.47L48.2933 101.773ZM42.0995 99.3231L40.1373 104.595L42.0117 105.293L43.9739 100.021L42.0995 99.3231ZM40.0891 104.774L39.2089 109.867L41.1797 110.207L42.0599 105.114L40.0891 104.774ZM39.2014 109.918L38.9987 111.612L40.9845 111.85L41.1873 110.156L39.2014 109.918ZM39.0012 111.593L38.6856 113.854L40.6664 114.13L40.982 111.87L39.0012 111.593ZM38.6782 113.926L38.5101 116.463L40.5057 116.595L40.6738 114.058L38.6782 113.926ZM38.5087 116.57L38.6991 121.203L40.6974 121.121L40.507 116.488L38.5087 116.57ZM38.7032 121.262L39.1656 125.885L41.1557 125.686L40.6933 121.063L38.7032 121.262ZM39.1886 126.02L39.8104 128.596L41.7546 128.126L41.1327 125.551L39.1886 126.02ZM41.3355 127.528L36.6243 124.401L35.5182 126.067L40.2295 129.194L41.3355 127.528ZM36.5193 124.34L28.3256 120.234L27.4296 122.022L35.6233 126.128L36.5193 124.34ZM28.226 120.191L25.0129 118.996L24.3161 120.871L27.5292 122.065L28.226 120.191ZM24.9984 118.991L17.7696 116.431L17.1019 118.316L24.3306 120.876L24.9984 118.991ZM16.4728 117.104L14.4787 124.224L16.4046 124.763L18.3987 117.643L16.4728 117.104ZM14.4441 124.422L13.9723 131.053L15.9673 131.195L16.4391 124.564L14.4441 124.422ZM13.9699 131.111L13.942 133.295L15.9418 133.32L15.9697 131.136L13.9699 131.111ZM13.9425 133.273L13.8406 136.198L15.8394 136.267L15.9413 133.342L13.9425 133.273ZM13.8411 136.279L13.9933 139.516L15.9911 139.422L15.8389 136.186L13.8411 136.279ZM14.0065 139.638L14.997 145.427L16.9684 145.09L15.9779 139.3L14.0065 139.638ZM15.0106 145.493L16.3892 151.204L18.3333 150.735L16.9548 145.024L15.0106 145.493ZM16.4383 151.355L19.1612 157.883L21.0071 157.113L18.2842 150.585L16.4383 151.355ZM19.2881 158.103L23.9514 164.238L25.5436 163.027L20.8803 156.892L19.2881 158.103ZM24.1013 164.396L27.3882 167.179L28.6806 165.653L25.3937 162.869L24.1013 164.396ZM27.4916 167.256L31.5546 169.882L32.6403 168.202L28.5772 165.576L27.4916 167.256ZM31.741 169.976L37.5405 172.189L38.2533 170.32L32.4539 168.108L31.741 169.976ZM37.7028 172.235L42.69 173.222L43.0782 171.26L38.091 170.273L37.7028 172.235ZM42.9119 173.241L46.7055 173.135L46.65 171.136L42.8563 171.242L42.9119 173.241ZM47.5496 172.626L48.9197 170.186L47.1759 169.207L45.8059 171.646L47.5496 172.626ZM48.9511 170.126L50.7857 166.263L48.9791 165.405L47.1445 169.268L48.9511 170.126ZM50.8438 166.109L52.2486 161.2L50.3258 160.65L48.921 165.559L50.8438 166.109ZM52.2762 161.073L52.4643 159.813L50.4862 159.518L50.2982 160.777L52.2762 161.073ZM52.3965 159.276C48.8894 150.971 46.9529 141.859 46.9529 132.3H44.9529C44.9529 142.132 46.9451 151.507 50.554 160.054L52.3965 159.276ZM46.9529 132.3C46.9529 122.841 48.849 113.82 52.2867 105.585L50.4411 104.815C46.9035 113.289 44.9529 122.571 44.9529 132.3H46.9529ZM90.3983 198.534L89.4087 196.804L87.6728 197.797L88.6623 199.527L90.3983 198.534ZM91.5045 200.191L90.3627 198.476L88.6979 199.584L89.8398 201.299L91.5045 200.191ZM93.1152 199.337L90.5124 199.758L90.8319 201.732L93.4346 201.311L93.1152 199.337ZM94.3029 198.794L92.8803 199.405L93.6695 201.243L95.0921 200.632L94.3029 198.794ZM95.0195 198.766C92.9508 198.063 90.9252 197.268 88.9476 196.387L88.1338 198.214C90.1667 199.12 92.2489 199.937 94.3755 200.66L95.0195 198.766ZM146.742 65.7991L146.387 66.1744L147.839 67.5494L148.194 67.1741L146.742 65.7991ZM149.821 62.0786L146.698 65.8486L148.238 67.1246L151.361 63.3546L149.821 62.0786ZM152.683 58.137L149.782 62.1288L151.4 63.3044L154.301 59.3126L152.683 58.137ZM149.21 58.5799L153.226 59.6887L153.758 57.7609L149.742 56.6521L149.21 58.5799ZM145.35 58.1664L149.366 58.6099L149.586 56.622L145.57 56.1785L145.35 58.1664ZM134.528 58.1724H145.46V56.1724H134.528V58.1724ZM127.286 59.0523L134.648 58.1653L134.409 56.1796L127.046 57.0667L127.286 59.0523ZM121.658 60.7899L127.459 59.0158L126.874 57.1032L121.073 58.8774L121.658 60.7899ZM119.56 61.8923L121.825 60.722L120.906 58.9453L118.642 60.1156L119.56 61.8923ZM119.091 62.0039C128.904 62.1051 138.24 64.1562 146.72 67.7814L147.506 65.9424C138.787 62.2154 129.192 60.108 119.112 60.004L119.091 62.0039ZM91.9039 66.7346L92.9096 64.9437L91.1658 63.9644L90.1601 65.7552L91.9039 66.7346ZM92.99 64.7592L95.9327 55.5743L94.028 54.9641L91.0854 64.149L92.99 64.7592ZM95.977 55.3505L96.7048 46.4353L94.7114 46.2725L93.9837 55.1878L95.977 55.3505ZM96.7064 46.2946L96.2659 38.8795L94.2694 38.9981L94.7099 46.4132L96.7064 46.2946ZM96.2605 38.8197L95.377 31.4585L93.3913 31.6968L94.2748 39.058L96.2605 38.8197ZM95.358 31.3503L94.4331 27.389L92.4855 27.8437L93.4103 31.805L95.358 31.3503ZM94.4136 27.3174L93.3207 23.8293L91.4122 24.4272L92.505 27.9153L94.4136 27.3174ZM93.3266 23.8485L92.5623 21.2256L90.6422 21.7851L91.4064 24.408L93.3266 23.8485ZM92.5461 21.1749L89.8104 13.3603L87.9227 14.0211L90.6584 21.8358L92.5461 21.1749ZM89.7317 13.1892L85.1974 5.36714L83.4671 6.37017L88.0014 14.1922L89.7317 13.1892ZM83.685 5.10639L76.7869 10.9639L78.0815 12.4884L84.9795 6.63091L83.685 5.10639ZM76.775 10.9742L73.7278 13.6454L75.0462 15.1494L78.0934 12.4781L76.775 10.9742ZM73.6497 13.7218L66.2356 21.8125L67.7101 23.1637L75.1243 15.073L73.6497 13.7218ZM66.1607 21.9047L61.8147 27.9551L63.4391 29.1219L67.7851 23.0715L66.1607 21.9047ZM61.7255 28.1056L59.086 33.6019L60.8888 34.4677L63.5284 28.9714L61.7255 28.1056ZM59.0234 33.7687L57.3443 39.8518L59.2722 40.384L60.9513 34.3009L59.0234 33.7687ZM57.33 39.9102L56.5167 43.7406L58.4731 44.156L59.2864 40.3256L57.33 39.9102ZM56.5016 43.8328L55.8921 49.0757L57.8787 49.3067L58.4882 44.0638L56.5016 43.8328ZM55.893 49.3143L56.536 54.4983L58.5208 54.2521L57.8778 49.0681L55.893 49.3143ZM56.5462 54.5632L57.6852 60.5139L59.6495 60.138L58.5106 54.1872L56.5462 54.5632ZM57.709 60.6116L59.4742 66.533L61.3909 65.9616L59.6257 60.0403L57.709 60.6116ZM59.5146 66.644L61.7232 71.7545L63.5591 70.9611L61.3505 65.8506L59.5146 66.644ZM61.7787 71.8639L64.9372 77.2458L66.6621 76.2335L63.5036 70.8516L61.7787 71.8639ZM65.0287 77.3766L68.0003 80.9728L69.5421 79.6989L66.5705 76.1026L65.0287 77.3766ZM69.4506 81.0696C75.7896 75.2003 83.2178 70.4595 91.4045 67.1729L90.6594 65.3169C82.2438 68.6953 74.6081 73.5686 68.0918 79.6021L69.4506 81.0696ZM75.3733 248.24C76.416 235.42 77.3326 222.39 78.2294 209.643L76.2343 209.502C75.3374 222.252 74.4216 235.27 73.3799 248.078L75.3733 248.24ZM78.2291 209.646L78.2292 209.645L76.2347 209.497L76.2346 209.499L78.2291 209.646ZM78.2295 209.641C78.6508 203.653 79.0677 197.726 79.4914 191.911L77.4966 191.766C77.0728 197.584 76.6557 203.513 76.2344 209.501L78.2295 209.641ZM80.112 248.078C79.0704 235.27 78.1545 222.252 77.2576 209.502L75.2625 209.643C76.1593 222.39 77.0759 235.42 78.1186 248.24L80.112 248.078ZM77.2573 209.499L77.2573 209.497L75.2627 209.645L75.2628 209.646L77.2573 209.499ZM77.2575 209.501C76.7742 202.631 76.2964 195.839 75.8076 189.203L73.813 189.35C74.3016 195.982 74.7791 202.771 75.2625 209.641L77.2575 209.501ZM56.6066 95.6716L51.1902 89.1339L49.65 90.4098L55.0665 96.9476L56.6066 95.6716ZM51.4201 89.7719C51.4201 88.5986 51.0665 87.2203 50.5547 85.8552C50.0364 84.4729 49.3269 83.0286 48.5506 81.6997C47.7753 80.3723 46.919 79.1356 46.0974 78.1755C45.687 77.6959 45.2723 77.27 44.8684 76.9335C44.4783 76.6083 44.0349 76.3125 43.5667 76.1729L42.9952 78.0895C43.0848 78.1162 43.2828 78.2155 43.5881 78.4699C43.8796 78.7128 44.2144 79.051 44.5778 79.4758C45.304 80.3245 46.0931 81.4579 46.8237 82.7085C47.5534 83.9577 48.2103 85.2993 48.682 86.5574C49.1602 87.8326 49.4201 88.9492 49.4201 89.7719H51.4201ZM51.0989 89.0375L38.3822 77.2841L37.0247 78.7528L49.7414 90.5062L51.0989 89.0375ZM38.3444 77.2508C35.5202 74.8927 31.0271 71.5999 27.0466 68.9528C25.0563 67.6292 23.1753 66.4544 21.6827 65.6344C20.9393 65.2261 20.2687 64.8926 19.7169 64.6733C19.4422 64.5641 19.1715 64.4729 18.9205 64.4183C18.6999 64.3703 18.3615 64.319 18.0208 64.4158L18.5671 66.3397C18.4216 66.3811 18.3621 66.3436 18.4955 66.3726C18.5985 66.395 18.757 66.444 18.9782 66.5319C19.4182 66.7067 20.006 66.9953 20.7197 67.3874C22.1413 68.1683 23.9694 69.3082 25.9391 70.6181C29.8785 73.2379 34.3094 76.4872 37.0626 78.786L38.3444 77.2508ZM37.5257 77.0344C35.3322 77.4308 32.2991 76.8367 29.5852 75.883C28.2489 75.4134 27.0368 74.873 26.103 74.3646C25.6356 74.1102 25.2501 73.8704 24.9586 73.6588C24.651 73.4355 24.5061 73.285 24.4604 73.2214L22.8362 74.3884C23.0694 74.7129 23.4195 75.0129 23.7838 75.2773C24.1642 75.5534 24.6275 75.8385 25.1467 76.1212C26.1859 76.687 27.4976 77.2693 28.9221 77.7699C31.7299 78.7566 35.1666 79.4931 37.8813 79.0025L37.5257 77.0344ZM71.9241 247.972C71.2875 227.008 71.0677 205.642 71.0859 185.453L69.0859 185.451C69.0676 205.655 69.2876 227.042 69.9251 248.033L71.9241 247.972ZM72.9518 77.5626L72.9824 69.9997L70.9824 69.9917L70.9519 77.5546L72.9518 77.5626ZM72.4612 69.1178C71.6114 68.6544 70.7217 67.7938 69.8593 66.6541C69.006 65.5264 68.2253 64.1865 67.5752 62.842C66.9253 61.4979 66.418 60.174 66.1027 59.0885C65.9449 58.5449 65.8399 58.0772 65.7868 57.7067C65.7603 57.5219 65.7483 57.3725 65.7468 57.2573C65.7461 57.2003 65.748 57.1562 65.7509 57.1236C65.7523 57.1076 65.7538 57.0955 65.7552 57.0869C65.7565 57.0783 65.7575 57.0743 65.7575 57.0744L63.8133 56.6051C63.7111 57.0284 63.7407 57.5283 63.807 57.9907C63.8774 58.481 64.0072 59.044 64.1821 59.6462C64.5323 60.8523 65.0823 62.2809 65.7746 63.7126C66.4667 65.1439 67.3129 66.6033 68.2644 67.8609C69.2069 69.1064 70.2998 70.2171 71.5036 70.8736L72.4612 69.1178ZM72.9801 70.0632L73.6281 60.4791L71.6327 60.3442L70.9847 69.9282L72.9801 70.0632ZM73.626 60.5047L74.61 49.9747L72.6186 49.7886L71.6347 60.3186L73.626 60.5047ZM74.6114 49.9581C74.8055 47.4259 75.2859 43.8242 75.9117 39.9222L73.9369 39.6055C73.3083 43.5254 72.8176 47.1907 72.6172 49.8052L74.6114 49.9581ZM75.9117 39.9222C76.709 34.9501 77.7358 29.5301 78.687 25.286C79.1632 23.1615 79.6169 21.3477 80.01 20.0371C80.2075 19.3789 80.3828 18.8709 80.5306 18.5216C80.6051 18.3455 80.6625 18.2339 80.7004 18.172C80.7592 18.0759 80.7214 18.1788 80.5595 18.2737L79.5477 16.5485C79.2598 16.7173 79.0842 16.9815 78.9947 17.1278C78.8842 17.3083 78.7826 17.5202 78.6886 17.7423C78.4994 18.1895 78.3 18.777 78.0943 19.4625C77.6813 20.8394 77.2157 22.706 76.7354 24.8486C75.7739 29.1387 74.7397 34.5996 73.9369 39.6055L75.9117 39.9222ZM75.3111 40.686C76.4267 40.2181 77.5676 39.3388 78.6111 38.336C79.6675 37.3209 80.6826 36.122 81.5423 34.9443C82.3995 33.77 83.1241 32.5869 83.5843 31.5966C83.8122 31.106 83.9941 30.623 84.0831 30.1897C84.1277 29.9727 84.1564 29.7334 84.14 29.4927C84.1237 29.2554 84.0587 28.9511 83.8548 28.675L82.2458 29.863C82.197 29.7969 82.1717 29.7362 82.1589 29.6954C82.1465 29.6556 82.1448 29.631 82.1446 29.6292C82.1445 29.6271 82.1454 29.6389 82.1428 29.6678C82.1402 29.6962 82.1346 29.7356 82.124 29.7871C82.0791 30.0058 81.9672 30.3306 81.7705 30.7538C81.3814 31.5912 80.7335 32.6602 79.9269 33.765C79.123 34.8664 78.1831 35.9735 77.2253 36.8939C76.2547 37.8267 75.3224 38.5125 74.5375 38.8417L75.3111 40.686ZM69.6709 248.014C62.9444 218.146 52.5644 187.671 48.2924 175.128L46.3992 175.773C50.6725 188.32 61.0196 218.703 67.7197 248.453L69.6709 248.014ZM48.2945 175.135L48.2944 175.134L46.397 175.767L46.3971 175.767L48.2945 175.135ZM48.2911 175.125L48.2906 175.123L46.3999 175.775L46.4003 175.777L48.2911 175.125ZM48.2919 175.127C47.6888 173.356 47.2092 171.948 46.8781 170.948L44.9794 171.576C45.3139 172.587 45.7969 174.005 46.3987 175.772L48.2919 175.127ZM47.4617 172.782L47.5496 172.626L45.8059 171.646L45.7179 171.803L47.4617 172.782ZM46.7058 173.135L46.7194 173.135L46.6633 171.136L46.6497 171.136L46.7058 173.135ZM47.0422 171.659L44.003 162.109L42.0972 162.716L45.1364 172.266L47.0422 171.659ZM43.7378 163.139C44.6144 162.308 45.2879 161.16 45.799 159.95C46.3145 158.731 46.6907 157.388 46.9414 156.109C47.1921 154.831 47.3228 153.59 47.3349 152.567C47.3409 152.057 47.3176 151.582 47.2586 151.174C47.204 150.797 47.1039 150.36 46.8827 150.014L45.1978 151.092C45.1822 151.067 45.235 151.155 45.2792 151.46C45.3189 151.734 45.3402 152.1 45.335 152.543C45.3246 153.428 45.2096 154.548 44.9788 155.724C44.7481 156.901 44.4071 158.107 43.9568 159.172C43.5021 160.248 42.9613 161.119 42.3625 161.687L43.7378 163.139ZM43.979 162.042L41.1657 154.988L39.308 155.729L42.1213 162.783L43.979 162.042ZM41.1546 154.962L37.8332 147.285L35.9976 148.079L39.3191 155.756L41.1546 154.962ZM37.8405 147.302C37.0477 145.372 35.7611 142.73 34.3011 139.94L32.5291 140.868C33.9798 143.639 35.2328 146.217 35.9904 148.062L37.8405 147.302ZM34.3011 139.94C32.4356 136.376 30.2659 132.53 28.4336 129.547C27.519 128.057 26.679 126.768 25.9974 125.832C25.6585 125.367 25.3435 124.967 25.0672 124.67C24.93 124.522 24.784 124.38 24.6344 124.263C24.5109 124.166 24.2731 123.996 23.961 123.942L23.6151 125.911C23.4271 125.878 23.3441 125.793 23.4037 125.839C23.437 125.865 23.5022 125.924 23.6018 126.031C23.7992 126.244 24.0606 126.57 24.3807 127.009C25.0171 127.883 25.8256 129.122 26.7294 130.593C28.5342 133.532 30.6814 137.337 32.5291 140.868L34.3011 139.94ZM33.4648 139.405C32.7329 139.369 31.7934 139.106 30.7609 138.669C29.7417 138.236 28.6931 137.66 27.7602 137.051C26.8228 136.439 26.035 135.817 25.5232 135.306C25.2629 135.046 25.1096 134.85 25.0374 134.727C24.9267 134.538 25.1106 134.725 24.9759 135.055L23.1245 134.298C22.8766 134.905 23.1559 135.473 23.3127 135.74C23.508 136.072 23.7945 136.406 24.1099 136.721C24.7495 137.36 25.6567 138.067 26.6675 138.726C27.6827 139.388 28.8355 140.025 29.9802 140.51C31.1115 140.99 32.2986 141.35 33.3653 141.403L33.4648 139.405ZM75.8569 247.827C72.7595 223.745 68.6712 198.965 65.2498 179.531L63.2801 179.878C66.6989 199.298 70.7814 224.043 73.8732 248.083L75.8569 247.827ZM50.0417 111.052C49.4972 109.638 48.9858 108.394 48.5608 107.478C48.3497 107.022 48.1501 106.627 47.9707 106.326C47.882 106.177 47.7846 106.028 47.6807 105.899C47.6069 105.808 47.4172 105.58 47.1181 105.46L46.3716 107.315C46.1612 107.231 46.078 107.098 46.1269 107.159C46.1457 107.182 46.1874 107.24 46.2523 107.349C46.3802 107.564 46.5464 107.888 46.7465 108.319C47.1441 109.176 47.6372 110.373 48.1751 111.771L50.0417 111.052ZM48.4393 115.937C47.9313 115.393 47.5292 114.883 47.284 114.491C47.159 114.291 47.0975 114.157 47.0744 114.088C47.0318 113.962 47.1425 114.165 46.9978 114.453L45.2107 113.555C44.9735 114.027 45.1047 114.506 45.1785 114.725C45.2717 115.003 45.4224 115.286 45.5879 115.551C45.9238 116.088 46.4165 116.702 46.9781 117.303L48.4393 115.937ZM85.8868 248.231C86.8796 229.779 90.245 210.676 91.6372 202.776L89.6675 202.429C88.2761 210.325 84.8897 229.537 83.8897 248.124L85.8868 248.231ZM91.6423 202.744L91.6423 202.743L89.6624 202.461L89.6624 202.461L91.6423 202.744ZM91.6372 202.776C91.8331 201.664 91.991 200.768 92.0971 200.13L90.1241 199.802C90.02 200.428 89.8642 201.312 89.6676 202.428L91.6372 202.776ZM91.5779 200.301L91.5046 200.191L89.8398 201.299L89.9131 201.409L91.5779 200.301ZM90.5124 199.758L90.503 199.759L90.8226 201.734L90.832 201.732L90.5124 199.758ZM92.0466 200.693L92.3779 198.659L90.4039 198.337L90.0726 200.371L92.0466 200.693ZM83.2803 248.228C83.705 230.066 84.5067 211.616 85.7097 195.534L83.7153 195.385C82.509 211.51 81.7061 229.995 81.2808 248.181L83.2803 248.228Z" fill="#005002"/>
</mask>
<g mask="url(#mask0_23_190)">
<path fill-rule="evenodd" clip-rule="evenodd" d="M78.4039 209.813C77.5069 222.564 76.5901 235.598 75.5457 248.438L73.5517 248.28C74.5918 235.492 75.5075 222.477 76.4043 209.73C77.7532 190.557 79.0595 171.99 80.6822 155.716C82.0339 142.161 83.6091 130.148 85.6208 120.651C86.6266 115.903 87.7461 111.761 89.0101 108.36C90.2692 104.972 91.6962 102.25 93.3507 100.396L94.8426 101.725C93.4295 103.309 92.108 105.763 90.8854 109.053C89.6677 112.33 88.5723 116.368 87.5779 121.062C85.5891 130.451 84.0224 142.378 82.6729 155.911C81.052 172.166 79.7504 190.671 78.4039 209.813Z" fill="#005002"/>
<path d="M93.6503 98.3994L93.4414 101.723L99.2278 100.395L104.582 98.3994L110.16 95.96L115.068 93.2988L120.645 90.4158L126 86.6458L130.908 82.654L135.816 78.4405L140.724 74.0052L144.071 70.457L147.64 66.6869L150.764 62.9169L153.664 58.9252L149.648 57.8163L145.632 57.3728H140.724H134.7L127.338 58.2599L121.538 60.034L115.96 62.9169L112.614 64.9128L108.375 68.0175L105.028 72.0093L101.459 76.8881L98.3354 82.2105L96.1044 87.3111L94.3196 93.2988L93.6503 98.3994Z" fill="#56AA5F"/>
<path fill-rule="evenodd" clip-rule="evenodd" d="M116.286 79.279C118.914 79.6027 122.105 78.8968 124.742 77.9702C126.166 77.4696 127.478 76.8872 128.517 76.3215C129.036 76.0388 129.5 75.7537 129.88 75.4776C130.244 75.2132 130.594 74.9132 130.827 74.5887L129.203 73.4216C129.158 73.4853 129.013 73.6357 128.705 73.859C128.414 74.0706 128.028 74.3105 127.561 74.5649C126.627 75.0733 125.415 75.6137 124.078 76.0833C122.308 76.7056 120.401 77.1748 118.68 77.3156C121.315 75.2629 124.668 72.8512 127.725 70.8184C129.694 69.5085 131.522 68.3686 132.944 67.5876C133.658 67.1956 134.245 66.907 134.685 66.7321C134.907 66.6442 135.065 66.5953 135.168 66.5729C135.204 66.5651 135.226 66.5621 135.236 66.5611C135.218 66.5616 135.168 66.5602 135.097 66.54L135.643 64.6161C135.302 64.5193 134.964 64.5706 134.743 64.6186C134.492 64.6732 134.221 64.7644 133.947 64.8736C133.395 65.0929 132.724 65.4263 131.981 65.8347C130.488 66.6547 128.607 67.8294 126.617 69.153C122.637 71.8002 118.144 75.093 115.319 77.4511L115.3 77.4672L104.847 87.1281C104.89 87.0062 104.935 86.8827 104.982 86.7576C105.453 85.4996 106.11 84.1579 106.84 82.9088C107.571 81.6581 108.36 80.5248 109.086 79.6761C109.449 79.2513 109.784 78.9131 110.076 78.6702C110.381 78.4158 110.579 78.3165 110.668 78.2898L110.097 76.3732C109.629 76.5128 109.185 76.8086 108.795 77.1337C108.391 77.4703 107.977 77.8962 107.566 78.3758C106.745 79.3359 105.888 80.5726 105.113 81.9C104.337 83.2289 103.627 84.6732 103.109 86.0555C102.651 87.278 102.319 88.5111 102.255 89.598L93.1034 100.644L94.6435 101.92L103.971 90.6613L116.286 79.279Z" fill="#0F6828"/>
<path fill-rule="evenodd" clip-rule="evenodd" d="M75.4322 209.813C76.3291 222.564 77.246 235.598 78.2903 248.438L80.2843 248.28C79.2442 235.492 78.3286 222.477 77.4318 209.73C76.0828 190.557 74.7766 171.99 73.1538 155.716C71.8022 142.161 70.227 130.148 68.2153 120.651C67.2094 115.903 66.09 111.761 64.8259 108.36C63.5669 104.972 62.1398 102.25 60.4854 100.396L58.9934 101.725C60.4066 103.309 61.7281 105.763 62.9507 109.053C64.1684 112.33 65.2638 116.368 66.2582 121.062C68.2469 130.451 69.8137 142.378 71.1631 155.911C72.7841 172.166 74.0857 190.671 75.4322 209.813Z" fill="#005002"/>
<path d="M60.1854 98.3994L60.3944 101.723L54.608 100.395L49.2536 98.3994L43.6762 95.96L38.768 93.2988L33.1905 90.4158L27.8362 86.6458L22.928 82.654L18.0199 78.4405L13.1117 74.0052L9.76522 70.457L6.19565 66.6869L3.07227 62.9169L0.171997 58.9252L4.18777 57.8163L8.20353 57.3728H19.1354L26.4976 58.2599L32.2982 60.034L37.8756 62.9169L41.2221 64.9128L45.461 68.0175L48.8074 72.0093L52.377 76.8881L55.5004 82.2105L57.7314 87.3111L59.5161 93.2988L60.1854 98.3994Z" fill="#56AA5F"/>
<path fill-rule="evenodd" clip-rule="evenodd" d="M27.2187 69.153C31.1992 71.8002 35.6923 75.093 38.5165 77.4511L38.5358 77.4672L48.9884 87.1281C48.9458 87.0062 48.901 86.8827 48.8541 86.7576C48.3824 85.4996 47.7255 84.1579 46.9958 82.9088C46.2652 81.6581 45.4761 80.5248 44.7499 79.6761C44.3865 79.2513 44.0517 78.9131 43.7602 78.6702C43.4549 78.4158 43.2569 78.3165 43.1673 78.2898L43.7388 76.3732C44.207 76.5128 44.6504 76.8086 45.0405 77.1337C45.4444 77.4703 45.8591 77.8962 46.2695 78.3758C47.0911 79.3359 47.9474 80.5726 48.7227 81.9C49.4989 83.2289 50.2085 84.6732 50.7268 86.0555C51.1852 87.278 51.5166 88.5111 51.5808 89.598L60.7324 100.644L59.1923 101.92L49.8646 90.6613L37.5495 79.279C34.9223 79.6027 31.7309 78.8968 29.0942 77.9702C27.6697 77.4696 26.3579 76.8872 25.3188 76.3215C24.7996 76.0388 24.3363 75.7537 23.9559 75.4776C23.5916 75.2132 23.2415 74.9132 23.0083 74.5887L24.6325 73.4216C24.6782 73.4853 24.8231 73.6357 25.1307 73.859C25.4222 74.0706 25.8077 74.3105 26.2751 74.5649C27.2089 75.0733 28.421 75.6137 29.7573 76.0833C31.5281 76.7056 33.4349 77.1748 35.1556 77.3156C32.5204 75.2629 29.1678 72.8512 26.1112 70.8184C24.1415 69.5085 22.3134 68.3686 20.8918 67.5876C20.1781 67.1956 19.5903 66.907 19.1503 66.7321C18.9291 66.6442 18.7706 66.5953 18.6676 66.5729C18.6318 66.5651 18.6099 66.5621 18.5998 66.5611C18.6173 66.5616 18.6679 66.5602 18.7392 66.54L18.1929 64.6161C18.5336 64.5193 18.872 64.5706 19.0926 64.6186C19.3436 64.6732 19.6143 64.7644 19.889 64.8736C20.4408 65.0929 21.1114 65.4263 21.8548 65.8347C23.3474 66.6547 25.2283 67.8294 27.2187 69.153Z" fill="#0F6828"/>
<path fill-rule="evenodd" clip-rule="evenodd" d="M72.7952 91.1599C72.0325 118.625 70.1839 185.192 72.0963 248.169L70.097 248.237C68.1826 185.193 70.0334 118.557 70.7959 91.1044C70.9034 87.2344 70.9892 84.1431 71.0399 81.9504L73.0396 81.9896C72.9888 84.1879 72.9028 87.2847 72.7952 91.1599Z" fill="#005002"/>
<path d="M69.2395 80.8946L71.5301 83.3111L75.6375 81.9846L80.6586 78.8838L86.1396 73.9937L89.6177 69.2702L92.2098 64.6544L95.1525 55.4695L95.8802 46.5543L95.4397 39.1392L94.5563 31.778L93.6314 27.8167L92.5386 24.3286L91.7744 21.7057L89.0387 13.891L84.5044 6.06901L77.6063 11.9265L74.5591 14.5978L71.2303 18.2303L67.145 22.6884L62.799 28.7389L60.1595 34.2351L58.4804 40.3183L57.667 44.1487L57.0575 49.3915L57.7005 54.5756L58.8395 60.5263L60.6047 66.4477L62.8133 71.5581L65.9717 76.94L69.2395 80.8946Z" fill="#236C34"/>
<path fill-rule="evenodd" clip-rule="evenodd" d="M76.4391 37.9441C76.7533 37.69 77.076 37.4038 77.403 37.0896C78.3607 36.1692 79.3003 35.0623 80.1042 33.9611C80.9106 32.8565 81.5582 31.7879 81.947 30.9511C82.1436 30.5281 82.2552 30.2041 82.2999 29.9866C82.3221 29.8783 82.3203 29.8315 82.3203 29.8316C82.3204 29.8341 82.3223 29.8593 82.3349 29.8998C82.3479 29.9414 82.3736 30.0026 82.4225 30.0689L84.0222 28.8696C84.2265 29.1463 84.2921 29.4519 84.3084 29.6908C84.325 29.9328 84.2961 30.1731 84.2513 30.3907C84.1621 30.8252 83.9798 31.3089 83.7518 31.7998C83.2914 32.7907 82.5665 33.9742 81.7092 35.1486C80.8493 36.3265 79.834 37.5256 78.7776 38.5408C77.8952 39.3888 76.9435 40.1481 75.9968 40.6451C75.4118 44.3451 74.9652 47.7393 74.7798 50.1577L74.7792 50.1661L73.7956 60.6916L73.1507 70.2307L73.0996 82.879L71.1068 82.8737L71.1557 70.7608C70.1583 70.0933 69.2451 69.1293 68.4411 68.0667C67.4895 66.8091 66.6431 65.3495 65.951 63.918C65.2586 62.486 64.7085 61.0571 64.3581 59.8505C64.1831 59.2481 64.0532 58.6847 63.9828 58.1938C63.9164 57.7311 63.8865 57.2296 63.9892 56.8042L65.9256 57.2757C65.9257 57.2754 65.9248 57.2791 65.9235 57.2874C65.9222 57.2957 65.9207 57.3076 65.9193 57.3234C65.9164 57.3555 65.9145 57.3993 65.9153 57.4559C65.9168 57.5706 65.9287 57.7195 65.9551 57.9041C66.0082 58.2739 66.113 58.7412 66.2708 59.2846C66.5859 60.3696 67.0931 61.6932 67.7429 63.0371C68.3928 64.3814 69.1735 65.7211 70.0267 66.8487C70.4421 67.3977 70.8639 67.882 71.2848 68.2885L71.8092 60.5322L72.7935 49.9975C72.9944 47.3831 73.4847 43.7211 74.1127 39.8055C74.9155 34.7993 75.9497 29.3382 76.9113 25.0478C77.3916 22.9052 77.8573 21.0383 78.2704 19.6611C78.4761 18.9754 78.6757 18.3875 78.865 17.9399C78.9591 17.7176 79.0609 17.5052 79.1716 17.3243C79.2616 17.1773 79.4375 16.9129 79.7251 16.7443L80.7261 18.4784C80.8127 18.4276 80.8638 18.3745 80.8837 18.3507C80.8796 18.3568 80.8742 18.3651 80.8675 18.376C80.8299 18.4374 80.7726 18.5486 80.6982 18.7245C80.5506 19.0733 80.3754 19.5809 80.178 20.239C79.785 21.5493 79.3313 23.3628 78.8552 25.4872C78.0415 29.1177 77.1725 33.6089 76.4391 37.9441ZM80.8933 18.338C80.8934 18.3383 80.8902 18.343 80.8837 18.3507C80.89 18.3415 80.8933 18.3376 80.8933 18.338Z" fill="#64AE71"/>
<path fill-rule="evenodd" clip-rule="evenodd" d="M46.5704 175.972C50.8466 188.528 61.1892 218.897 67.8891 248.647L69.8456 248.221C63.1189 218.353 52.7342 187.864 48.4651 175.33C47.864 173.565 47.3842 172.156 47.0528 171.155L45.1487 171.769C45.4833 172.78 45.9663 174.198 46.5704 175.972Z" fill="#005002"/>
<path d="M48.2199 169.897L46.8499 172.336L43.0562 172.442L38.069 171.455L32.2696 169.242L28.2065 166.616L24.9196 163.833L20.2563 157.698L17.5334 151.17L16.1548 145.459L15.1643 139.669L15.0121 136.433L15.114 133.508L15.1419 131.324L15.6137 124.694L17.6079 117.574L24.8366 120.134L28.0497 121.328L31.7285 123.172L36.2434 125.434L41.3553 128.827L44.8903 132.262L47.7503 136.398L49.3444 139.068L51.0995 142.858L51.7794 146.941L52.2202 151.735L52.1234 156.676L51.4593 161.125L50.0545 166.035L48.2199 169.897Z" fill="#56AA5F"/>
<path fill-rule="evenodd" clip-rule="evenodd" d="M31.5655 139.083C31.4002 139.02 31.2318 138.952 31.0609 138.88C30.0341 138.445 28.9782 137.864 28.0384 137.251C27.0953 136.635 26.2966 136.006 25.7726 135.482C25.5071 135.217 25.3406 135.007 25.2562 134.864C25.2225 134.806 25.2134 134.779 25.2132 134.779C25.2132 134.779 25.2137 134.781 25.2145 134.784C25.2172 134.796 25.2475 134.928 25.169 135.12L23.2755 134.634C23.1404 134.964 23.1662 135.261 23.212 135.459C23.2592 135.664 23.3466 135.848 23.438 136.004C23.6211 136.316 23.8944 136.636 24.2046 136.946C24.8319 137.572 25.7283 138.271 26.7334 138.927C27.7418 139.585 28.8871 140.217 30.0242 140.699C30.9646 141.098 31.9458 141.414 32.8664 141.537C34.2299 144.16 35.4032 146.586 36.1274 148.35L36.1303 148.357L39.4501 156.03L42.2481 163.045L45.2782 172.566L47.2444 171.759L44.3763 162.747C45.0466 161.96 45.5758 161 45.9916 160.017C46.5101 158.79 46.8869 157.443 47.1376 156.165C47.3884 154.886 47.5186 153.647 47.5306 152.629C47.5366 152.12 47.5133 151.651 47.4554 151.25C47.401 150.874 47.304 150.467 47.1054 150.157L45.3192 151.349C45.3188 151.349 45.3188 151.348 45.3192 151.349C45.3216 151.354 45.3377 151.385 45.3588 151.456C45.3823 151.535 45.4061 151.643 45.4264 151.784C45.4673 152.066 45.4886 152.437 45.4833 152.882C45.4728 153.772 45.3574 154.893 45.1268 156.069C44.896 157.246 44.5555 158.448 44.1082 159.506C43.9387 159.907 43.7585 160.276 43.5697 160.61L41.3676 155.089L38.0445 147.408C37.2548 145.486 35.9726 142.853 34.5153 140.069C32.6515 136.507 30.484 132.665 28.6544 129.687C27.7408 128.199 26.9039 126.915 26.2269 125.985C25.8899 125.522 25.5801 125.13 25.3116 124.841C25.1782 124.697 25.0399 124.563 24.9008 124.454C24.7886 124.366 24.5716 124.21 24.2774 124.158L23.6428 126.095C23.55 126.079 23.4894 126.05 23.4649 126.036C23.4692 126.039 23.4747 126.043 23.4813 126.049C23.5252 126.083 23.5981 126.149 23.7015 126.261C23.9067 126.482 24.1733 126.815 24.4953 127.257C25.1363 128.137 25.9479 129.381 26.8527 130.854C28.3132 133.232 29.9971 136.176 31.5655 139.083ZM23.4525 126.028C23.4526 126.029 23.4567 126.032 23.4649 126.036C23.4566 126.03 23.4525 126.028 23.4525 126.028Z" fill="#0F5B28"/>
<path fill-rule="evenodd" clip-rule="evenodd" d="M58.223 151.377C61.3772 168.272 69.0191 209.204 74.0454 248.283L76.029 248.027C70.9944 208.884 63.3398 167.885 60.1877 151.002C59.7435 148.622 59.3887 146.722 59.1432 145.373L57.1756 145.732C57.422 147.086 57.7778 148.992 58.223 151.377Z" fill="#005002"/>
<path d="M59.7397 144.617L58.5979 146.332L55.9951 145.911L52.6681 144.482L48.8888 141.993L46.3316 139.412L44.3182 136.812L41.6456 131.423L40.3328 125.986L39.8704 121.363L39.68 116.729L39.8481 114.193L40.1637 111.932L40.3664 110.237L41.2466 105.144L43.2088 99.8723L47.9361 102.822L50.0326 104.177L52.3929 106.098L55.2897 108.456L58.4996 111.772L60.6278 114.912L62.2355 118.507L63.101 120.794L63.9823 123.974L64.1038 127.239L64.002 131.025L63.5204 134.855L62.6922 138.226L61.3189 141.857L59.7397 144.617Z" fill="#0F5926"/>
<path fill-rule="evenodd" clip-rule="evenodd" d="M50.4789 117.84C49.9184 117.416 49.358 116.914 48.8563 116.404C48.2743 115.812 47.7978 115.234 47.4999 114.783C47.3482 114.553 47.2675 114.392 47.2342 114.303C47.2309 114.294 47.2281 114.286 47.2259 114.279C47.2368 114.342 47.2453 114.496 47.1524 114.681L45.4002 113.727C45.1409 114.243 45.311 114.776 45.3954 115.004C45.5068 115.304 45.6822 115.614 45.8757 115.907C46.2684 116.503 46.8391 117.184 47.4823 117.838C48.1285 118.496 48.8746 119.153 49.6318 119.694C50.2014 120.1 50.8153 120.467 51.4238 120.706C52.1117 122.859 52.6866 124.829 53.0223 126.249L53.0243 126.258L54.6486 132.663L55.969 138.476L57.2387 146.273L59.1814 145.965L57.9959 138.686C58.5088 138.157 58.9391 137.491 59.2953 136.803C59.7589 135.906 60.1336 134.898 60.415 133.929C60.6965 132.959 60.8922 132.002 60.9876 131.198C61.0352 130.798 61.0599 130.418 61.0537 130.084C61.048 129.78 61.0162 129.406 60.8835 129.082L59.0702 129.848C59.066 129.838 59.0641 129.832 59.0637 129.833C59.0622 129.833 59.0806 129.907 59.0841 130.094C59.088 130.304 59.0725 130.584 59.0322 130.924C58.9518 131.6 58.7811 132.446 58.527 133.322C58.2727 134.197 57.9427 135.076 57.5538 135.828C57.5144 135.904 57.4747 135.979 57.4348 136.051L56.5606 132.202L54.934 125.787C54.5527 124.176 53.8947 121.951 53.1319 119.591C52.1554 116.57 50.9943 113.289 49.9911 110.723C49.4904 109.442 49.023 108.324 48.6333 107.501C48.4398 107.092 48.2549 106.734 48.086 106.458C48.0025 106.321 47.9088 106.181 47.8068 106.059C47.7307 105.968 47.5468 105.757 47.2637 105.643L46.5701 107.532C46.4367 107.479 46.3544 107.405 46.3253 107.375C46.3392 107.393 46.3718 107.437 46.4237 107.522C46.5359 107.706 46.6841 107.987 46.8651 108.37C47.2244 109.129 47.6715 110.195 48.1653 111.458C48.8943 113.323 49.7118 115.581 50.4789 117.84ZM46.3219 107.371C46.3095 107.356 46.3108 107.36 46.3253 107.375C46.324 107.374 46.3228 107.372 46.3219 107.371ZM47.2181 114.249C47.2171 114.248 47.2188 114.258 47.2259 114.279C47.2226 114.26 47.219 114.249 47.2181 114.249Z" fill="#64AE71"/>
<path fill-rule="evenodd" clip-rule="evenodd" d="M91.808 202.984C90.4142 210.895 87.0515 229.982 86.0588 248.432L84.0619 248.324C85.062 229.735 88.451 210.507 89.8409 202.622C90.0363 201.513 90.1921 200.629 90.2963 200.002L92.2691 200.331C92.163 200.969 92.0052 201.865 91.808 202.984Z" fill="#005002"/>
<path d="M89.7024 199.231L90.8443 200.945L93.447 200.524L96.774 199.096L100.553 196.606L103.111 194.026L105.124 191.425L107.797 186.037L109.109 180.6L109.572 175.976L109.762 171.343L109.594 168.806L109.278 166.545L109.076 164.851L108.196 159.758L106.233 154.486L101.506 157.435L99.4096 158.79L97.0492 160.711L94.1525 163.069L90.9426 166.386L88.8143 169.525L87.2066 173.12L86.3412 175.408L85.4599 178.587L85.3383 181.852L85.4401 185.639L85.9218 189.468L86.7499 192.839L88.1233 196.471L89.7024 199.231Z" fill="#0F5926"/>
<path fill-rule="evenodd" clip-rule="evenodd" d="M98.9629 172.454C99.5233 172.03 100.084 171.528 100.585 171.018C101.167 170.426 101.644 169.848 101.942 169.397C102.094 169.167 102.174 169.006 102.208 168.917C102.211 168.908 102.214 168.9 102.216 168.893C102.205 168.956 102.196 169.109 102.289 169.294L104.042 168.341C104.301 168.857 104.131 169.39 104.046 169.617C103.935 169.918 103.76 170.228 103.566 170.521C103.173 171.116 102.603 171.797 101.959 172.452C101.313 173.109 100.567 173.767 99.8099 174.307C99.2404 174.714 98.6265 175.081 98.018 175.319C97.3301 177.473 96.7553 179.442 96.4195 180.863L96.4175 180.871L94.7932 187.277L93.4729 193.09L92.2031 200.886L90.2604 200.579L91.4459 193.3C90.933 192.771 90.5027 192.105 90.1464 191.416C89.6829 190.52 89.3081 189.512 89.0268 188.542C88.7453 187.573 88.5496 186.616 88.4542 185.812C88.4066 185.411 88.3819 185.032 88.3881 184.698C88.3938 184.394 88.4256 184.02 88.5583 183.696L90.3717 184.462C90.3758 184.451 90.3777 184.446 90.3781 184.446C90.3796 184.447 90.3612 184.52 90.3577 184.708C90.3538 184.918 90.3693 185.198 90.4096 185.537C90.49 186.214 90.6607 187.06 90.9148 187.935C91.1691 188.811 91.4992 189.69 91.8881 190.442C91.9275 190.518 91.9671 190.592 92.007 190.665L92.8811 186.816L94.5078 180.401C94.8891 178.79 95.5471 176.565 96.3099 174.205C97.2864 171.184 98.4475 167.902 99.4507 165.337C99.9514 164.056 100.419 162.938 100.809 162.115C101.002 161.706 101.187 161.348 101.356 161.072C101.439 160.935 101.533 160.795 101.635 160.673C101.711 160.582 101.895 160.371 102.178 160.257L102.872 162.146C103.005 162.092 103.087 162.019 103.116 161.989C103.103 162.006 103.07 162.051 103.018 162.136C102.906 162.319 102.758 162.601 102.577 162.983C102.217 163.742 101.77 164.809 101.277 166.071C100.547 167.936 99.7299 170.195 98.9629 172.454ZM103.12 161.985C103.132 161.97 103.131 161.974 103.116 161.989C103.118 161.987 103.119 161.986 103.12 161.985ZM102.224 168.863C102.225 168.862 102.223 168.872 102.216 168.893C102.219 168.874 102.223 168.863 102.224 168.863Z" fill="#64AE71"/>
<path d="M91.9553 146.622L91.7463 150.466L97.5327 148.931L102.887 146.622L108.465 143.8L113.373 140.722L118.95 137.387L124.305 133.026L129.213 128.409L134.121 123.535L139.029 118.404L142.375 114.3L145.945 109.939L149.068 105.578L151.969 100.96L147.953 99.6778L143.937 99.1648H139.029H133.005L125.643 100.191L119.843 102.243L114.265 105.578L110.919 107.887L106.68 111.478L103.333 116.095L99.7637 121.739L96.6403 127.896L94.4094 133.796L92.6246 140.722L91.9553 146.622Z" fill="#56AA5F"/>
<path fill-rule="evenodd" clip-rule="evenodd" d="M114.628 124.354L102.323 137.509L92.9912 150.539L91.3652 149.374L100.555 136.543C100.661 134.01 101.934 130.55 103.389 127.669C104.16 126.142 105.011 124.72 105.827 123.617C106.234 123.067 106.645 122.578 107.046 122.192C107.43 121.822 107.877 121.474 108.361 121.306L109.014 123.197C108.941 123.222 108.746 123.331 108.434 123.632C108.139 123.916 107.801 124.311 107.435 124.807C106.703 125.796 105.909 127.116 105.174 128.571C104.304 130.294 103.556 132.129 103.083 133.769L113.552 122.576L113.57 122.559C116.393 119.833 120.885 116.024 124.866 112.962C126.856 111.431 128.737 110.072 130.231 109.123C130.974 108.65 131.647 108.263 132.203 108.008C132.479 107.881 132.756 107.772 133.016 107.707C133.243 107.65 133.612 107.583 133.987 107.706L133.362 109.606C133.456 109.637 133.525 109.638 133.552 109.636C133.542 109.638 133.527 109.641 133.504 109.646C133.411 109.67 133.258 109.724 133.039 109.825C132.603 110.025 132.017 110.357 131.304 110.811C129.883 111.714 128.055 113.032 126.085 114.547C122.876 117.016 119.34 119.969 116.65 122.417C118.432 122.297 120.455 121.739 122.338 120.973C123.67 120.431 124.879 119.808 125.811 119.221C126.277 118.928 126.662 118.651 126.954 118.405C127.259 118.149 127.413 117.969 127.471 117.876L129.17 118.932C128.948 119.288 128.607 119.629 128.24 119.937C127.86 120.256 127.397 120.586 126.877 120.914C125.835 121.569 124.52 122.245 123.091 122.826C120.472 123.89 117.281 124.715 114.628 124.354ZM133.564 109.635C133.564 109.635 133.56 109.636 133.552 109.636C133.561 109.635 133.565 109.634 133.564 109.635Z" fill="#0F6828"/>
<path fill-rule="evenodd" clip-rule="evenodd" d="M86.6146 186.772C84.9949 204.743 83.9522 226.81 83.4458 248.47L81.4596 248.34C81.9666 226.654 83.0109 204.539 84.636 186.509C85.4485 177.495 86.4073 169.487 87.5198 163.059C88.6255 156.668 89.901 151.721 91.3927 148.914L93.1507 149.924C91.8198 152.428 90.5833 157.092 89.4771 163.484C88.3776 169.838 87.4246 177.786 86.6146 186.772Z" fill="#005002"/>
</g>
<mask id="mask1_23_190" style="mask-type:alpha" maskUnits="userSpaceOnUse" x="4" y="0" width="267" height="263">
<ellipse cx="137.953" cy="131.029" rx="133" ry="131.029" fill="#C8D5DB"/>
</mask>
<g mask="url(#mask1_23_190)">
<mask id="mask2_23_190" style="mask-type:alpha" maskUnits="userSpaceOnUse" x="65" y="60" width="146" height="143">
<path d="M210.703 131.302C210.703 170.682 178.3 202.605 138.328 202.605C98.3563 202.605 65.9529 170.682 65.9529 131.302C65.9529 91.9232 98.3563 60 138.328 60C178.3 60 210.703 91.9232 210.703 131.302Z" fill="#C8D5DB"/>
</mask>
<g mask="url(#mask2_23_190)">
<path fill-rule="evenodd" clip-rule="evenodd" d="M82.6466 291.474C80.9983 314.906 79.3135 338.857 77.3943 362.454L73.7301 362.162C75.6414 338.663 77.3241 314.746 78.9721 291.322C81.4509 256.088 83.8514 221.969 86.8334 192.063C89.3172 167.153 92.2119 145.078 95.9087 127.627C97.7571 118.9 99.8143 111.29 102.137 105.039C104.451 98.813 107.073 93.8106 110.114 90.4038L112.855 92.8468C110.258 95.7568 107.83 100.267 105.583 106.313C103.346 112.335 101.333 119.755 99.5052 128.382C95.8506 145.635 92.9714 167.552 90.4916 192.421C87.5129 222.293 85.121 256.298 82.6466 291.474Z" fill="#005002"/>
<path d="M110.664 86.7351L110.28 92.842L120.914 90.4028L130.753 86.7351L141.003 82.2523L150.022 77.362L160.272 72.0642L170.111 65.1362L179.13 57.8008L188.15 50.0577L197.169 41.9072L203.319 35.3868L209.879 28.4588L215.618 21.5309L220.948 14.1954L213.568 12.1578L206.189 11.3427H186.1L172.571 12.9728L161.911 16.233L151.662 21.5309L145.512 25.1986L137.723 30.904L131.573 38.2395L125.014 47.205L119.274 56.9857L115.174 66.3588L111.894 77.362L110.664 86.7351Z" fill="#56AA5F"/>
<path fill-rule="evenodd" clip-rule="evenodd" d="M152.261 51.5987C157.089 52.1936 162.954 50.8963 167.799 49.1935C170.417 48.2735 172.827 47.2034 174.737 46.1638C175.691 45.6444 176.543 45.1204 177.242 44.613C177.911 44.1271 178.554 43.5758 178.983 42.9796L175.998 40.8349C175.914 40.9519 175.648 41.2283 175.083 41.6387C174.547 42.0275 173.839 42.4682 172.98 42.9358C171.264 43.8701 169.036 44.8631 166.581 45.7261C163.326 46.8697 159.823 47.7318 156.66 47.9906C161.503 44.2185 167.664 39.7866 173.281 36.0511C176.9 33.644 180.26 31.5492 182.872 30.1141C184.184 29.3936 185.264 28.8633 186.072 28.542C186.479 28.3804 186.77 28.2905 186.96 28.2494C187.025 28.2351 187.065 28.2295 187.084 28.2277C187.052 28.2285 186.959 28.2261 186.828 28.1889L187.832 24.6534C187.206 24.4756 186.584 24.5698 186.178 24.658C185.717 24.7583 185.22 24.9259 184.715 25.1266C183.701 25.5296 182.469 26.1423 181.103 26.8928C178.36 28.3996 174.903 30.5584 171.246 32.9907C163.931 37.8553 155.674 43.9062 150.484 48.2396L150.449 48.2693L131.241 66.0226C131.319 65.7986 131.401 65.5716 131.487 65.3418C132.354 63.0299 133.561 60.5645 134.902 58.2689C136.245 55.9707 137.695 53.888 139.029 52.3284C139.697 51.5478 140.312 50.9263 140.848 50.4798C141.409 50.0124 141.773 49.83 141.938 49.7809L140.887 46.2589C140.027 46.5154 139.212 47.0589 138.495 47.6564C137.753 48.2749 136.991 49.0575 136.237 49.9389C134.727 51.7032 133.154 53.9759 131.729 56.4151C130.302 58.8571 128.998 61.5113 128.046 64.0515C127.204 66.298 126.595 68.564 126.477 70.5614L109.659 90.8603L112.489 93.2051L129.63 72.5154L152.261 51.5987Z" fill="#0F6828"/>
<path fill-rule="evenodd" clip-rule="evenodd" d="M77.1856 291.474C78.8338 314.906 80.5187 338.857 82.4378 362.454L86.1021 362.162C84.1908 338.663 82.5081 314.746 80.8601 291.322C78.3812 256.088 75.9808 221.969 72.9987 192.063C70.5149 167.153 67.6202 145.078 63.9235 127.627C62.075 118.9 60.0179 111.29 57.695 105.039C55.3812 98.813 52.7589 93.8106 49.7186 90.4038L46.9769 92.8468C49.5738 95.7568 52.0023 100.267 54.249 106.313C56.4866 112.335 58.4996 119.755 60.3269 128.382C63.9816 145.635 66.8607 167.552 69.3406 192.421C72.3192 222.293 74.7112 256.298 77.1856 291.474Z" fill="#005002"/>
<path d="M49.1676 86.7351L49.5516 92.842L38.9182 90.4028L29.0788 86.7351L18.8294 82.2523L9.8099 77.362L-0.43951 72.0642L-10.2789 65.1362L-19.2984 57.8008L-28.3179 50.0577L-37.3374 41.9072L-43.487 35.3868L-50.0466 28.4588L-55.7863 21.5309L-61.116 14.1954L-53.7364 12.1578L-46.3568 11.3427H-26.268L-12.7388 12.9728L-2.07941 16.233L8.16999 21.5309L14.3196 25.1986L22.1092 30.904L28.2588 38.2395L34.8184 47.205L40.5581 56.9857L44.6579 66.3588L47.9377 77.362L49.1676 86.7351Z" fill="#56AA5F"/>
<path fill-rule="evenodd" clip-rule="evenodd" d="M7.57054 51.5987C2.74262 52.1936 -3.12193 50.8963 -7.96729 49.1935C-10.5851 48.2735 -12.9956 47.2034 -14.9052 46.1638C-15.8592 45.6444 -16.7107 45.1204 -17.4097 44.613C-18.0792 44.1271 -18.7226 43.5758 -19.151 42.9796L-16.1664 40.8349C-16.0823 40.9519 -15.8161 41.2283 -15.2508 41.6387C-14.7151 42.0275 -14.0067 42.4682 -13.1479 42.9358C-11.4318 43.8701 -9.20444 44.8631 -6.74876 45.7261C-3.49462 46.8697 0.00930405 47.7318 3.17134 47.9906C-1.67113 44.2185 -7.83197 39.7866 -13.4491 36.0511C-17.0687 33.644 -20.4279 31.5492 -23.0404 30.1141C-24.3519 29.3936 -25.4321 28.8633 -26.2407 28.542C-26.6471 28.3804 -26.9384 28.2905 -27.1277 28.2494C-27.1934 28.2351 -27.2337 28.2295 -27.2522 28.2277C-27.2202 28.2285 -27.1271 28.2261 -26.9961 28.1889L-28.0001 24.6534C-27.3739 24.4756 -26.7521 24.5698 -26.3467 24.658C-25.8854 24.7583 -25.388 24.9259 -24.8832 25.1266C-23.8692 25.5296 -22.6369 26.1423 -21.2708 26.8928C-18.528 28.3996 -15.0714 30.5584 -11.4139 32.9907C-4.09903 37.8553 4.15762 43.9062 9.3476 48.2396L9.38313 48.2693L28.5913 66.0226C28.5129 65.7986 28.4306 65.5716 28.3444 65.3418C27.4776 63.0299 26.2704 60.5645 24.9295 58.2689C23.587 55.9707 22.1369 53.888 20.8024 52.3284C20.1345 51.5478 19.5193 50.9263 18.9836 50.4798C18.4226 50.0124 18.0587 49.83 17.8941 49.7809L18.9444 46.2589C19.8046 46.5154 20.6195 47.0589 21.3365 47.6564C22.0787 48.2749 22.8408 49.0575 23.5949 49.9389C25.1046 51.7032 26.6782 53.9759 28.103 56.4151C29.5294 58.8571 30.8334 61.5113 31.7858 64.0515C32.6281 66.298 33.2372 68.564 33.3552 70.5614L50.1725 90.8603L47.3424 93.2051L30.2014 72.5154L7.57054 51.5987Z" fill="#0F6828"/>
<path fill-rule="evenodd" clip-rule="evenodd" d="M72.3398 73.4316C70.9382 123.902 67.5412 246.23 71.0555 361.959L67.3814 362.084C63.8634 246.232 67.2646 123.777 68.6657 73.3296C68.8633 66.2179 69.0211 60.5372 69.1141 56.5078L72.7889 56.5797C72.6956 60.6195 72.5376 66.3102 72.3398 73.4316Z" fill="#005002"/>
<path d="M65.8051 54.5676L70.0145 59.0081L77.5623 56.5706L86.7894 50.8724L96.8615 41.8862L103.253 33.2059L108.016 24.7238L113.424 7.84522L114.761 -8.53791L113.952 -22.1642L112.328 -35.6915L110.629 -42.9709L108.621 -49.3809L107.216 -54.2008L102.189 -68.5614L93.8565 -82.9355L81.1803 -72.1716L75.5807 -67.2627L61.9561 -52.3949L53.9698 -41.2763L49.1193 -31.1761L46.0336 -19.9974L44.539 -12.9585L43.4189 -3.32401L44.6005 6.20239L46.6935 17.1378L49.9373 28.0191L53.9959 37.4104L59.8001 47.3003L65.8051 54.5676Z" fill="#236C34"/>
<path fill-rule="evenodd" clip-rule="evenodd" d="M79.0358 -24.3602C79.6132 -24.8271 80.2062 -25.3531 80.807 -25.9305C82.5669 -27.6217 84.2937 -29.6559 85.7709 -31.6795C87.2528 -33.7094 88.4429 -35.6731 89.1574 -37.2108C89.5186 -37.9882 89.7237 -38.5835 89.8058 -38.9833C89.8467 -39.1823 89.8433 -39.2681 89.8433 -39.2681C89.8436 -39.2635 89.847 -39.2171 89.8702 -39.1427C89.8941 -39.0662 89.9412 -38.9539 90.0311 -38.8321L92.9708 -41.0359C93.3463 -40.5274 93.4668 -39.9658 93.4968 -39.5268C93.5272 -39.0822 93.4741 -38.6406 93.3919 -38.2406C93.2278 -37.4423 92.893 -36.5533 92.4739 -35.6513C91.6278 -33.8304 90.2958 -31.6555 88.7203 -29.4973C87.1401 -27.3327 85.2744 -25.1292 83.3331 -23.2636C81.7116 -21.7054 79.9627 -20.3101 78.223 -19.3967C77.148 -12.5974 76.3272 -6.35998 75.9866 -1.91587L75.9854 -1.90043L74.1781 17.4417L72.9929 34.9712L72.899 58.2144L69.2369 58.2046L69.3268 35.9453C67.4938 34.7187 65.8158 32.9473 64.3382 30.9946C62.5895 28.6835 61.0343 26.0013 59.7623 23.3706C58.49 20.7392 57.479 18.1134 56.8351 15.8961C56.5136 14.789 56.2748 13.7537 56.1454 12.8516C56.0235 12.0014 55.9686 11.0798 56.1573 10.298L59.7157 11.1645C59.7157 11.1645 59.7142 11.1707 59.7118 11.186C59.7094 11.2012 59.7066 11.2231 59.704 11.2521C59.6988 11.3112 59.6953 11.3916 59.6967 11.4957C59.6994 11.7064 59.7213 11.9801 59.77 12.3192C59.8674 12.9989 60.0601 13.8576 60.3501 14.8561C60.9291 16.8501 61.8611 19.2823 63.0552 21.7519C64.2496 24.2223 65.6842 26.6841 67.2521 28.7563C68.0154 29.7651 68.7906 30.6551 69.5639 31.4021L70.5276 17.1488L72.3365 -2.21027C72.7056 -7.0146 73.6067 -13.744 74.7606 -20.9397C76.2359 -30.1392 78.1365 -40.1749 79.9035 -48.059C80.7861 -51.9964 81.6419 -55.4271 82.4011 -57.958C82.779 -59.2179 83.1458 -60.2983 83.4938 -61.1209C83.6667 -61.5294 83.8537 -61.9197 84.0572 -62.2521C84.2225 -62.5222 84.5459 -63.008 85.0743 -63.318L86.9138 -60.1312C87.0729 -60.2245 87.1669 -60.3222 87.2034 -60.3659C87.1958 -60.3548 87.1859 -60.3395 87.1737 -60.3195C87.1045 -60.2065 86.9993 -60.0023 86.8625 -59.6791C86.5913 -59.038 86.2693 -58.1052 85.9066 -56.8958C85.1843 -54.4881 84.3507 -51.1555 83.4757 -47.2516C81.9804 -40.58 80.3835 -32.3267 79.0358 -24.3602ZM87.2211 -60.3893C87.2211 -60.3893 87.2153 -60.3801 87.2034 -60.3659C87.215 -60.3829 87.2211 -60.3893 87.2211 -60.3893Z" fill="#64AE71"/>
<path fill-rule="evenodd" clip-rule="evenodd" d="M24.1481 229.286C32.0062 252.36 51.0123 308.167 63.3244 362.837L66.9196 362.055C54.5583 307.167 35.475 251.139 27.6298 228.106C26.5252 224.863 25.6434 222.274 25.0345 220.435L21.5355 221.563C22.1503 223.42 23.038 226.027 24.1481 229.286Z" fill="#005002"/>
<path d="M27.1787 218.123L24.6611 222.605L17.6896 222.799L8.52494 220.985L-2.13242 216.92L-9.59887 212.094L-15.639 206.979L-24.2086 195.705L-29.2123 183.709L-31.7457 173.214L-33.5658 162.575L-33.8455 156.627L-33.6583 151.252L-33.607 147.239L-32.74 135.055L-29.0755 121.971L-15.7915 126.676L-9.88699 128.871L5.1701 136.416L14.5639 142.651L21.0601 148.963L26.3157 156.563L29.2451 161.469L32.4703 168.434L33.7197 175.937L34.5298 184.748L34.3519 193.828L33.1316 202.003L30.55 211.025L27.1787 218.123Z" fill="#56AA5F"/>
<path fill-rule="evenodd" clip-rule="evenodd" d="M-3.42615 161.497C-3.72987 161.382 -4.03926 161.258 -4.35338 161.124C-6.24022 160.324 -8.18072 159.257 -9.9077 158.13C-11.6408 157 -13.1084 155.842 -14.0713 154.881C-14.5593 154.393 -14.8653 154.008 -15.0204 153.744C-15.0824 153.638 -15.0993 153.588 -15.0993 153.588C-15.0993 153.588 -15.0985 153.591 -15.0969 153.598C-15.092 153.619 -15.0364 153.861 -15.1806 154.214L-18.6601 153.321C-18.9084 153.929 -18.8611 154.473 -18.7768 154.838C-18.6901 155.214 -18.5296 155.553 -18.3616 155.839C-18.025 156.412 -17.5228 157.001 -16.9529 157.57C-15.8 158.721 -14.1528 160.006 -12.3058 161.211C-10.4528 162.42 -8.34806 163.581 -6.25839 164.467C-4.53028 165.2 -2.72725 165.781 -1.03554 166.008C1.47015 170.826 3.62625 175.285 4.95711 178.526L4.96246 178.539L11.0631 192.639L16.2047 205.531L21.7731 223.028L25.3862 221.544L20.1157 204.983C21.3475 203.537 22.3198 201.774 23.084 199.966C24.0368 197.712 24.7293 195.237 25.1899 192.888C25.6508 190.538 25.8901 188.261 25.9121 186.39C25.9231 185.455 25.8804 184.592 25.774 183.857C25.6739 183.165 25.4957 182.418 25.1308 181.847L21.8484 184.038C21.8528 184.047 21.8824 184.104 21.9212 184.234C21.9644 184.38 22.0081 184.579 22.0454 184.837C22.1205 185.356 22.1596 186.037 22.15 186.856C22.1307 188.49 21.9186 190.551 21.4948 192.712C21.0706 194.874 20.445 197.083 19.6231 199.028C19.3116 199.765 18.9804 200.444 18.6333 201.056L14.5868 190.91L8.48009 176.796C7.02879 173.263 4.6726 168.425 1.99462 163.309C-1.43038 156.764 -5.41356 149.704 -8.77559 144.23C-10.4545 141.497 -11.9924 139.136 -13.2366 137.428C-13.8559 136.577 -14.4251 135.857 -14.9185 135.326C-15.1637 135.062 -15.4179 134.814 -15.6735 134.615C-15.8797 134.454 -16.2785 134.166 -16.8191 134.071L-17.9853 137.631C-18.1557 137.601 -18.2672 137.548 -18.3122 137.522C-18.3043 137.528 -18.2942 137.535 -18.282 137.545C-18.2013 137.608 -18.0674 137.73 -17.8773 137.935C-17.5003 138.341 -17.0103 138.953 -16.4186 139.766C-15.2408 141.383 -13.7493 143.668 -12.0865 146.376C-9.4026 150.745 -6.30827 156.155 -3.42615 161.497ZM-18.3348 137.508C-18.3348 137.508 -18.3271 137.514 -18.3122 137.522C-18.3275 137.511 -18.3348 137.508 -18.3348 137.508Z" fill="#0F5B28"/>
<path fill-rule="evenodd" clip-rule="evenodd" d="M45.5611 184.089C51.3574 215.136 65.4005 290.355 74.637 362.169L78.2822 361.698C69.0305 289.766 54.9641 214.425 49.1716 183.4C48.3552 179.027 47.7032 175.535 47.2522 173.057L43.6363 173.717C44.0892 176.205 44.743 179.707 45.5611 184.089Z" fill="#005002"/>
<path d="M48.3482 171.667L46.2499 174.818L41.467 174.045L35.3532 171.419L28.4082 166.845L23.7088 162.102L20.009 157.324L15.0977 147.421L12.6851 137.43L11.8355 128.933L11.4856 120.419L11.7945 115.757L12.3745 111.603L12.747 108.489L14.3644 99.1299L17.9702 89.4419L26.6574 94.8623L30.51 97.3517L40.1707 105.215L46.0693 111.31L49.9803 117.079L52.9347 123.685L54.525 127.889L56.1446 133.732L56.368 139.732L56.1809 146.69L55.2958 153.727L53.7739 159.923L51.2502 166.595L48.3482 171.667Z" fill="#0F5926"/>
<path fill-rule="evenodd" clip-rule="evenodd" d="M31.3303 122.461C30.3004 121.681 29.2705 120.76 28.3486 119.822C27.2791 118.733 26.4034 117.672 25.8561 116.843C25.5772 116.42 25.4288 116.125 25.3678 115.961C25.3616 115.944 25.3565 115.929 25.3524 115.917C25.3725 116.033 25.3881 116.315 25.2174 116.654L21.9975 114.902C21.521 115.851 21.8335 116.83 21.9887 117.249C22.1934 117.8 22.5157 118.37 22.8713 118.909C23.593 120.003 24.6417 121.254 25.8236 122.457C27.0112 123.665 28.3821 124.874 29.7737 125.867C30.8204 126.613 31.9485 127.288 33.0668 127.726C34.3308 131.683 35.3872 135.303 36.0043 137.914L36.0079 137.929L38.9928 149.7L41.4191 160.383L43.7525 174.71L47.3224 174.144L45.1439 160.768C46.0864 159.796 46.8771 158.573 47.5318 157.307C48.3837 155.659 49.0723 153.807 49.5894 152.026C50.1066 150.244 50.4663 148.485 50.6416 147.008C50.7291 146.272 50.7745 145.574 50.7631 144.961C50.7526 144.402 50.6942 143.714 50.4503 143.119L47.118 144.527C47.1104 144.508 47.1061 144.499 47.1061 144.499C47.1061 144.499 47.1372 144.635 47.1436 144.979C47.1508 145.366 47.1223 145.88 47.0483 146.503C46.9006 147.747 46.5869 149.301 46.1199 150.91C45.6526 152.519 45.0461 154.135 44.3315 155.517C44.259 155.657 44.1862 155.793 44.1129 155.926L42.5064 148.852L39.5173 137.065C38.8166 134.104 37.6074 130.015 36.2057 125.678C34.4111 120.126 32.2774 114.097 30.4339 109.382C29.5138 107.028 28.6548 104.974 27.9387 103.461C27.5832 102.71 27.2434 102.051 26.9331 101.544C26.7795 101.293 26.6074 101.036 26.42 100.812C26.2801 100.645 25.9421 100.256 25.4219 100.047L24.1473 103.519C23.9023 103.42 23.751 103.285 23.6975 103.23C23.7229 103.262 23.783 103.344 23.8784 103.5C24.0844 103.837 24.3568 104.355 24.6894 105.057C25.3497 106.452 26.1713 108.412 27.0787 110.732C28.4184 114.159 29.9207 118.31 31.3303 122.461ZM23.6911 103.222C23.6685 103.195 23.6708 103.203 23.6975 103.23C23.6951 103.227 23.6911 103.222 23.6911 103.222ZM25.3381 115.861C25.3381 115.861 25.3394 115.878 25.3524 115.917C25.3463 115.882 25.3381 115.861 25.3381 115.861Z" fill="#64AE71"/>
<path fill-rule="evenodd" clip-rule="evenodd" d="M107.279 278.924C104.717 293.462 98.5377 328.537 96.7136 362.442L93.0439 362.243C94.8817 328.084 101.11 292.749 103.664 278.259C104.023 276.222 104.309 274.597 104.501 273.445L108.126 274.049C107.931 275.222 107.641 276.868 107.279 278.924Z" fill="#005002"/>
<path d="M103.409 272.027L105.508 275.179L110.29 274.405L116.404 271.779L123.349 267.205L128.049 262.462L131.748 257.684L136.66 247.781L139.072 237.79L139.922 229.294L140.272 220.779L139.963 216.118L139.383 211.963L139.01 208.849L137.393 199.49L133.787 189.802L125.1 195.222L121.247 197.712L111.587 205.576L105.688 211.67L101.777 217.439L98.8228 224.046L97.2324 228.249L95.6129 234.092L95.3895 240.092L95.5765 247.051L96.4616 254.087L97.9835 260.283L100.507 266.955L103.409 272.027Z" fill="#0F5926"/>
<path fill-rule="evenodd" clip-rule="evenodd" d="M120.427 222.821C121.457 222.042 122.487 221.12 123.409 220.182C124.478 219.094 125.354 218.033 125.901 217.203C126.18 216.78 126.328 216.485 126.389 216.321C126.396 216.304 126.401 216.29 126.405 216.277C126.385 216.393 126.369 216.675 126.54 217.015L129.76 215.263C130.236 216.211 129.924 217.19 129.769 217.609C129.564 218.16 129.242 218.73 128.886 219.269C128.164 220.363 127.115 221.614 125.934 222.817C124.746 224.025 123.375 225.234 121.983 226.227C120.937 226.974 119.809 227.648 118.69 228.086C117.426 232.044 116.37 235.663 115.753 238.274L115.749 238.289L112.764 250.06L110.338 260.743L108.005 275.07L104.435 274.504L106.613 261.128C105.671 260.156 104.88 258.933 104.225 257.667C103.373 256.02 102.685 254.167 102.168 252.386C101.651 250.604 101.291 248.845 101.116 247.369C101.028 246.632 100.983 245.935 100.994 245.322C101.005 244.762 101.063 244.075 101.307 243.479L104.639 244.887C104.647 244.868 104.651 244.859 104.651 244.859C104.651 244.859 104.62 244.995 104.614 245.339C104.606 245.726 104.635 246.24 104.709 246.863C104.857 248.107 105.17 249.661 105.637 251.27C106.105 252.88 106.711 254.495 107.426 255.877C107.498 256.017 107.571 256.153 107.644 256.286L109.251 249.213L112.24 237.425C112.941 234.465 114.15 230.375 115.552 226.039C117.346 220.487 119.48 214.457 121.323 209.742C122.243 207.389 123.102 205.334 123.818 203.822C124.174 203.071 124.514 202.411 124.824 201.904C124.978 201.653 125.15 201.397 125.337 201.172C125.477 201.005 125.815 200.616 126.335 200.407L127.61 203.879C127.855 203.78 128.006 203.645 128.06 203.59C128.034 203.622 127.974 203.704 127.879 203.86C127.673 204.197 127.4 204.715 127.068 205.417C126.408 206.812 125.586 208.772 124.679 211.092C123.339 214.519 121.836 218.67 120.427 222.821ZM128.066 203.582C128.089 203.555 128.086 203.563 128.06 203.59C128.062 203.587 128.066 203.582 128.066 203.582ZM126.419 216.221C126.419 216.221 126.418 216.238 126.405 216.277C126.411 216.242 126.419 216.221 126.419 216.221Z" fill="#64AE71"/>
<path d="M107.549 175.351L107.165 182.415L117.799 179.594L127.638 175.351L137.887 170.166L146.907 164.509L157.156 158.381L166.996 150.367L176.015 141.882L185.035 132.925L194.054 123.497L200.204 115.955L206.763 107.941L212.503 99.9269L217.833 91.4417L210.453 89.0847L203.074 88.1419H182.985L169.456 90.0275L158.796 93.7987L148.547 99.9269L142.397 104.17L134.608 110.769L128.458 119.254L121.898 129.625L116.159 140.939L112.059 151.781L108.779 164.509L107.549 175.351Z" fill="#56AA5F"/>
<path fill-rule="evenodd" clip-rule="evenodd" d="M149.213 134.431L126.602 158.605L109.453 182.549L106.465 180.409L123.353 156.829C123.547 152.175 125.887 145.816 128.56 140.523C129.977 137.716 131.541 135.103 133.041 133.077C133.789 132.065 134.545 131.167 135.281 130.457C135.986 129.778 136.807 129.138 137.698 128.831L138.897 132.305C138.762 132.351 138.405 132.551 137.832 133.103C137.29 133.625 136.669 134.352 135.995 135.262C134.65 137.081 133.191 139.506 131.841 142.179C130.242 145.346 128.867 148.719 127.999 151.732L147.237 131.164L147.27 131.132C152.457 126.122 160.712 119.124 168.028 113.496C171.685 110.683 175.142 108.185 177.887 106.441C179.253 105.573 180.489 104.861 181.511 104.392C182.019 104.158 182.527 103.959 183.005 103.839C183.421 103.735 184.1 103.612 184.788 103.838L183.641 107.329C183.813 107.386 183.94 107.388 183.989 107.385C183.972 107.387 183.943 107.393 183.902 107.403C183.73 107.447 183.45 107.546 183.046 107.731C182.245 108.099 181.169 108.71 179.858 109.543C177.247 111.202 173.889 113.625 170.269 116.41C164.371 120.946 157.873 126.372 152.93 130.871C156.203 130.651 159.921 129.625 163.383 128.217C165.83 127.223 168.052 126.077 169.764 124.999C170.621 124.459 171.328 123.95 171.865 123.499C172.426 123.029 172.709 122.697 172.814 122.527L175.936 124.467C175.529 125.122 174.903 125.748 174.229 126.314C173.531 126.9 172.679 127.507 171.722 128.109C169.809 129.314 167.393 130.555 164.767 131.622C159.954 133.579 154.088 135.094 149.213 134.431ZM184.012 107.382C184.012 107.382 184.004 107.384 183.989 107.385C184.005 107.382 184.012 107.382 184.012 107.382Z" fill="#0F6828"/>
<path fill-rule="evenodd" clip-rule="evenodd" d="M97.735 249.134C94.7585 282.157 92.8425 322.708 91.9118 362.511L88.2618 362.273C89.1937 322.422 91.1126 281.783 94.099 248.649C95.592 232.084 97.3541 217.37 99.3983 205.556C101.43 193.813 103.774 184.722 106.515 179.563L109.746 181.419C107.3 186.021 105.028 194.591 102.995 206.338C100.975 218.014 99.2234 232.62 97.735 249.134Z" fill="#005002"/>
</g>
</g>
<path d="M234.44 131.817C234.44 184.183 191.35 226.634 138.196 226.634C85.0426 226.634 41.9529 184.183 41.9529 131.817C41.9529 79.4511 85.0426 37 138.196 37C191.35 37 234.44 79.4511 234.44 131.817ZM65.8328 131.817C65.8328 171.19 98.2311 203.108 138.196 203.108C178.162 203.108 210.56 171.19 210.56 131.817C210.56 92.4441 178.162 60.526 138.196 60.526C98.2311 60.526 65.8328 92.4441 65.8328 131.817Z" fill="#404040"/>
<rect width="29.0183" height="156.848" rx="10" transform="matrix(0.672751 -0.739869 -0.749772 -0.661697 310.144 302.759)" fill="#404040"/>
<ellipse cx="138.196" cy="131.817" rx="72.3751" ry="71.3024" fill="#A8E0FB" fill-opacity="0.5"/>
<path fill-rule="evenodd" clip-rule="evenodd" d="M201.824 140.92C202.008 138.919 202.102 136.891 202.102 134.84C202.102 99.6564 174.41 71.1343 140.249 71.1343C138.258 71.1343 136.289 71.2311 134.347 71.4206C170.179 74.6066 198.731 104.014 201.824 140.92Z" fill="#FEFEFC"/>
</svg>
