<svg width="96" height="114" viewBox="0 0 96 114" fill="none" xmlns="http://www.w3.org/2000/svg">
<path d="M0.35122 104.257C0.13227 105.941 0.783252 107.622 2.07979 108.719L3.73857 110.122C4.2085 110.52 4.74783 110.827 5.32941 111.029L10.596 112.856C12.0132 113.348 13.5763 113.177 14.8541 112.392L28.8364 103.793L36.837 98.8726L42.0312 95.6784C43.7339 94.6312 44.6493 92.6706 44.3589 90.6928L43.0407 81.7163L41.2437 69.4801L35.5292 70.4653C33.1042 70.8834 30.7354 69.4748 29.9448 67.1445L28.0663 61.6078L6.92456 71.5659C5.38242 72.2922 4.3166 73.7542 4.09684 75.4446L0.35122 104.257Z" fill="url(#paint0_linear_2101_142)"/>
<path d="M28.0663 61.6078L29.9448 67.1445C30.7354 69.4748 33.1042 70.8834 35.5292 70.4653L41.2437 69.4801L34.7406 61.6078H28.0663Z" fill="url(#paint1_linear_2101_142)"/>
<path d="M33.595 45.7406C32.1957 46.9728 31.5982 48.8814 32.0452 50.6916L34.7406 61.6078L36.8274 51.1738C37.0286 50.1679 37.5343 49.2482 38.276 48.5394L44.8376 42.2695L42.784 37.6488L33.595 45.7406Z" fill="url(#paint2_linear_2101_142)"/>
<path d="M44.8376 42.2695L64.8605 45.6922L50.9395 37.6488L44.8376 42.2695Z" fill="url(#paint3_linear_2101_142)"/>
<path d="M64.8605 9.24026L47.918 25.327L50.9395 37.6488L62.9174 28.5786L64.8605 9.24026Z" fill="url(#paint4_linear_2101_142)"/>
<path d="M64.8605 45.6922L79.5782 42.2695L62.9174 28.5786L50.9395 37.6488L64.8605 45.6922Z" fill="url(#paint5_linear_2101_142)"/>
<path d="M95.1515 25.327L92.0711 6.50209L77.4942 17.5403L62.9174 28.5786L79.5782 42.2695L95.1515 25.327Z" fill="url(#paint6_linear_2101_142)"/>
<path d="M64.8605 9.24026L62.9174 28.5786L77.4942 17.5403V7.96894L64.8605 9.24026Z" fill="url(#paint7_linear_2101_142)"/>
<path d="M77.4942 17.5403L92.0711 6.50209L77.4942 7.96894V17.5403Z" fill="url(#paint8_linear_2101_142)"/>
<path d="M20.7074 25.327L31.3179 34.3972L41.2437 32.6859L37.1365 22.7111L20.7074 25.327Z" fill="url(#paint9_linear_2101_142)"/>
<path d="M47.918 25.327L44.8376 11.8073L37.1365 22.7111L41.2437 32.6859L47.918 25.327Z" fill="url(#paint10_linear_2101_142)"/>
<path d="M42.784 37.6488L47.918 25.327L41.2437 32.6859L42.784 37.6488Z" fill="url(#paint11_linear_2101_142)"/>
<path d="M20.7074 11.8073V25.327L37.1365 22.7111L32.6014 11.6973L20.7074 11.8073Z" fill="url(#paint12_linear_2101_142)"/>
<path d="M37.1365 22.7111L44.8376 11.8073L36.4519 6.24539L32.6014 11.6973L37.1365 22.7111Z" fill="url(#paint13_linear_2101_142)"/>
<path d="M28.0663 0.683472L20.7074 11.8073L32.6014 11.6973L28.0663 0.683472Z" fill="url(#paint14_linear_2101_142)"/>
<path d="M28.0663 0.683472L32.6014 11.6973L36.4519 6.24539L28.0663 0.683472Z" fill="url(#paint15_linear_2101_142)"/>
<path d="M42.784 37.6488L44.8376 42.2695L50.9395 37.6488L47.918 25.327L42.784 37.6488Z" fill="url(#paint16_linear_2101_142)"/>
<path d="M31.3179 34.3972L42.784 37.6488L41.2437 32.6859L31.3179 34.3972Z" fill="url(#paint17_linear_2101_142)"/>
<path d="M11.2856 72.3931C9.69325 73.03 8.53845 74.4386 8.22616 76.125L2.82163 105.309C2.76602 105.61 2.73804 105.915 2.73804 106.22V107.13L19.8855 78.6297C22.356 74.5236 18.1935 69.6299 13.7442 71.4096L11.2856 72.3931Z" fill="#C8A07F" fill-opacity="0.5"/>
<path d="M20.7699 98.2646C21.4918 94.3578 16.648 91.9449 13.9644 94.8745L2.73804 107.13L18.2812 101.245C19.5748 100.755 20.5186 99.6248 20.7699 98.2646V98.2646Z" fill="#C8A07F" fill-opacity="0.5"/>
<path d="M44.7658 41.7949L43.8522 39.7393M42.9386 37.6838L43.8522 39.7393M43.8522 39.7393L50.137 35.3998M91.8155 6.62178L75.371 17.9764M75.371 17.9764L94.5563 24.8935M75.371 17.9764L72.6302 8.44896M75.371 17.9764L65.353 24.8935M65.353 24.8935L64.4079 9.36254L65.0417 25.1085M65.353 24.8935L65.0417 25.1085M65.0417 25.1085L79.9389 41.7949M65.0417 25.1085L54.447 32.4239L50.137 35.3998M50.137 35.3998L47.9633 25.1085M50.137 35.3998L65.0417 45.906" stroke="#005002" stroke-opacity="0.3" stroke-width="3"/>
<path d="M44.7657 33.5726L44.44 33.4252C43.7096 33.0945 43.1178 32.5188 42.7673 31.7976V31.7976L41.6824 29.5659L39.5126 25.1024M27.8644 1.14026L33.4157 12.5601L35.1731 16.1753M35.1731 16.1753L21.0125 12.5601M35.1731 16.1753L44.7657 12.1033M35.1731 16.1753L39.5126 25.1024M39.5126 25.1024L21.0125 23.9799M39.5126 25.1024L46.1361 19.8688" stroke="#005002" stroke-opacity="0.3" stroke-width="3"/>
<defs>
<linearGradient id="paint0_linear_2101_142" x1="47.5758" y1="0.683472" x2="47.5758" y2="113.633" gradientUnits="userSpaceOnUse">
<stop offset="0.125" stop-color="#0B2C05"/>
<stop offset="0.17" stop-color="#0B2C05"/>
<stop offset="0.5" stop-color="#703B1D"/>
<stop offset="0.815" stop-color="#C97545"/>
</linearGradient>
<linearGradient id="paint1_linear_2101_142" x1="47.5758" y1="0.683472" x2="47.5758" y2="113.633" gradientUnits="userSpaceOnUse">
<stop offset="0.125" stop-color="#0B2C05"/>
<stop offset="0.17" stop-color="#0B2C05"/>
<stop offset="0.5" stop-color="#703B1D"/>
<stop offset="0.815" stop-color="#C97545"/>
</linearGradient>
<linearGradient id="paint2_linear_2101_142" x1="47.5758" y1="0.683472" x2="47.5758" y2="113.633" gradientUnits="userSpaceOnUse">
<stop stop-color="#72C72A"/>
<stop offset="0.56" stop-color="#137A68"/>
<stop offset="0.86" stop-color="#0B5A4C"/>
</linearGradient>
<linearGradient id="paint3_linear_2101_142" x1="47.5758" y1="0.683472" x2="47.5758" y2="113.633" gradientUnits="userSpaceOnUse">
<stop stop-color="#72C72A"/>
<stop offset="0.56" stop-color="#137A68"/>
<stop offset="0.86" stop-color="#0B5A4C"/>
</linearGradient>
<linearGradient id="paint4_linear_2101_142" x1="47.5758" y1="0.683472" x2="47.5758" y2="113.633" gradientUnits="userSpaceOnUse">
<stop stop-color="#72C72A"/>
<stop offset="0.56" stop-color="#137A68"/>
<stop offset="0.86" stop-color="#0B5A4C"/>
</linearGradient>
<linearGradient id="paint5_linear_2101_142" x1="47.5758" y1="0.683472" x2="47.5758" y2="113.633" gradientUnits="userSpaceOnUse">
<stop stop-color="#72C72A"/>
<stop offset="0.56" stop-color="#137A68"/>
<stop offset="0.86" stop-color="#0B5A4C"/>
</linearGradient>
<linearGradient id="paint6_linear_2101_142" x1="47.5758" y1="0.683472" x2="47.5758" y2="113.633" gradientUnits="userSpaceOnUse">
<stop stop-color="#72C72A"/>
<stop offset="0.56" stop-color="#137A68"/>
<stop offset="0.86" stop-color="#0B5A4C"/>
</linearGradient>
<linearGradient id="paint7_linear_2101_142" x1="47.5758" y1="0.683472" x2="47.5758" y2="113.633" gradientUnits="userSpaceOnUse">
<stop stop-color="#72C72A"/>
<stop offset="0.56" stop-color="#137A68"/>
<stop offset="0.86" stop-color="#0B5A4C"/>
</linearGradient>
<linearGradient id="paint8_linear_2101_142" x1="47.5758" y1="0.683472" x2="47.5758" y2="113.633" gradientUnits="userSpaceOnUse">
<stop stop-color="#72C72A"/>
<stop offset="0.56" stop-color="#137A68"/>
<stop offset="0.86" stop-color="#0B5A4C"/>
</linearGradient>
<linearGradient id="paint9_linear_2101_142" x1="47.5758" y1="0.683472" x2="47.5758" y2="113.633" gradientUnits="userSpaceOnUse">
<stop stop-color="#65AC29"/>
<stop offset="0.56" stop-color="#106959"/>
<stop offset="0.86" stop-color="#03352C"/>
</linearGradient>
<linearGradient id="paint10_linear_2101_142" x1="47.5758" y1="0.683472" x2="47.5758" y2="113.633" gradientUnits="userSpaceOnUse">
<stop stop-color="#65AC29"/>
<stop offset="0.56" stop-color="#106959"/>
<stop offset="0.86" stop-color="#03352C"/>
</linearGradient>
<linearGradient id="paint11_linear_2101_142" x1="47.5758" y1="0.683472" x2="47.5758" y2="113.633" gradientUnits="userSpaceOnUse">
<stop stop-color="#65AC29"/>
<stop offset="0.56" stop-color="#106959"/>
<stop offset="0.86" stop-color="#03352C"/>
</linearGradient>
<linearGradient id="paint12_linear_2101_142" x1="47.5758" y1="0.683472" x2="47.5758" y2="113.633" gradientUnits="userSpaceOnUse">
<stop stop-color="#65AC29"/>
<stop offset="0.56" stop-color="#106959"/>
<stop offset="0.86" stop-color="#03352C"/>
</linearGradient>
<linearGradient id="paint13_linear_2101_142" x1="47.5758" y1="0.683472" x2="47.5758" y2="113.633" gradientUnits="userSpaceOnUse">
<stop stop-color="#65AC29"/>
<stop offset="0.56" stop-color="#106959"/>
<stop offset="0.86" stop-color="#03352C"/>
</linearGradient>
<linearGradient id="paint14_linear_2101_142" x1="47.5758" y1="0.683472" x2="47.5758" y2="113.633" gradientUnits="userSpaceOnUse">
<stop stop-color="#65AC29"/>
<stop offset="0.56" stop-color="#106959"/>
<stop offset="0.86" stop-color="#03352C"/>
</linearGradient>
<linearGradient id="paint15_linear_2101_142" x1="47.5758" y1="0.683472" x2="47.5758" y2="113.633" gradientUnits="userSpaceOnUse">
<stop stop-color="#65AC29"/>
<stop offset="0.56" stop-color="#106959"/>
<stop offset="0.86" stop-color="#03352C"/>
</linearGradient>
<linearGradient id="paint16_linear_2101_142" x1="47.5758" y1="0.683472" x2="47.5758" y2="113.633" gradientUnits="userSpaceOnUse">
<stop stop-color="#72C72A"/>
<stop offset="0.56" stop-color="#137A68"/>
<stop offset="0.86" stop-color="#0B5A4C"/>
</linearGradient>
<linearGradient id="paint17_linear_2101_142" x1="47.5758" y1="0.683472" x2="47.5758" y2="113.633" gradientUnits="userSpaceOnUse">
<stop stop-color="#65AC29"/>
<stop offset="0.56" stop-color="#106959"/>
<stop offset="0.86" stop-color="#03352C"/>
</linearGradient>
</defs>
</svg>
