<svg width="133" height="113" viewBox="0 0 133 113" fill="none" xmlns="http://www.w3.org/2000/svg">
<path d="M64.8953 89.3057L78.7183 78.4132H81.0711L70.4833 90.758L69.0127 98.2617L77.2477 112.301H69.0127L63.1306 95.5991L64.8953 89.3057Z" fill="url(#paint0_linear_2014_1297)"/>
<path d="M97.8435 55.683L91.7464 75.3527L81.3101 83.8571L62.2941 77.407L48.4094 60.7576L47.1536 44.0443L53.7946 24.7565L63.3398 11.1611L76.6632 20.5154L89.7844 38.2525L97.8435 55.683Z" fill="url(#paint1_linear_2014_1297)" stroke="url(#paint2_linear_2014_1297)"/>
<path d="M81.0384 83.6662L76.6049 65.9862M62.8772 11.2421L67.8982 31.2653M67.8982 31.2653L53.5229 24.5656M67.8982 31.2653L75.6568 20.2147M67.8982 31.2653L72.1714 48.3062M72.1714 48.3062L90.1664 37.7087M72.1714 48.3062L76.6049 65.9862M72.1714 48.3062L59.8535 45.9034L47.5356 43.5005M76.6049 65.9862L48.9534 61.1395M76.6049 65.9862L97.8437 55.683" stroke="#386524" stroke-opacity="0.3" stroke-width="3"/>
<path d="M72.9449 50.5154L70.1973 70.9243L76.0849 83.0312L96.0493 85.1835L115.652 75.9242L123.825 61.2918L125.919 41.0004L122.982 24.6504L106.959 27.5285L87.5915 38.0957L72.9449 50.5154Z" fill="url(#paint3_linear_2014_1297)" stroke="url(#paint4_linear_2014_1297)"/>
<path d="M76.4119 82.9724L87.8746 68.8005M123.368 24.9187L110.386 40.9688M110.386 40.9688L126.246 40.9416M110.386 40.9688L107.999 27.6792M110.386 40.9688L99.3373 54.6285M99.3373 54.6285L87.474 37.4417M99.3373 54.6285L87.8746 68.8005M99.3373 54.6285L111.522 57.6331L123.708 60.6378M87.8746 68.8005L114.998 76.0417M87.8746 68.8005L72.9448 50.5154" stroke="#386524" stroke-opacity="0.3" stroke-width="3"/>
<path d="M32.5653 20.9372V8.97686L23.2628 2L18.2793 4.32562V14.957L23.2628 22.5984L14.6248 20.9372H7.98015L1.99998 25.9207L4.3256 31.9008L14.6248 34.8909L23.2628 28.5785L30.5719 37.2165L42.5322 39.8744L39.2099 28.5785L30.5719 22.5984L32.5653 20.9372Z" fill="url(#paint5_linear_2014_1297)"/>
<path d="M23.2628 22.5984L18.2793 14.957V4.32562L23.2628 2L32.5653 8.97686V20.9372L30.5719 22.5984M23.2628 22.5984H30.5719M23.2628 22.5984L14.6248 20.9372H7.98015L1.99998 25.9207L4.3256 31.9008L14.6248 34.8909L23.2628 28.5785M23.2628 22.5984V25.9207V28.5785M23.2628 22.5984L42.5322 39.8744M30.5719 22.5984L39.2099 28.5785L42.5322 39.8744M23.2628 28.5785L30.5719 37.2165L42.5322 39.8744" stroke="url(#paint6_linear_2014_1297)" stroke-width="3"/>
<ellipse cx="12.7975" cy="27.5818" rx="5.14959" ry="2.99008" fill="white"/>
<ellipse cx="25.0902" cy="12.9637" rx="5.14959" ry="2.99008" transform="rotate(70.8676 25.0902 12.9637)" fill="white"/>
<defs>
<linearGradient id="paint0_linear_2014_1297" x1="72.1009" y1="78.4132" x2="72.1009" y2="112.301" gradientUnits="userSpaceOnUse">
<stop offset="0.31" stop-color="#338E4E"/>
<stop offset="0.59" stop-color="#0F5B28"/>
<stop offset="0.87" stop-color="#054D40"/>
</linearGradient>
<linearGradient id="paint1_linear_2014_1297" x1="87.9474" y1="28.438" x2="56.4481" y2="73.3026" gradientUnits="userSpaceOnUse">
<stop stop-color="#74C827"/>
<stop offset="1" stop-color="#108B7A"/>
</linearGradient>
<linearGradient id="paint2_linear_2014_1297" x1="87.9474" y1="28.438" x2="56.4481" y2="73.3026" gradientUnits="userSpaceOnUse">
<stop stop-color="#74C827"/>
<stop offset="1" stop-color="#148E78"/>
</linearGradient>
<linearGradient id="paint3_linear_2014_1297" x1="93.3885" y1="29.966" x2="103.08" y2="83.9207" gradientUnits="userSpaceOnUse">
<stop stop-color="#74C827"/>
<stop offset="1" stop-color="#108B7A"/>
</linearGradient>
<linearGradient id="paint4_linear_2014_1297" x1="93.3885" y1="29.966" x2="103.08" y2="83.9207" gradientUnits="userSpaceOnUse">
<stop stop-color="#74C827"/>
<stop offset="1" stop-color="#148E78"/>
</linearGradient>
<linearGradient id="paint5_linear_2014_1297" x1="22.2661" y1="2" x2="45.8545" y2="34.2265" gradientUnits="userSpaceOnUse">
<stop stop-color="#FF0101"/>
<stop offset="0.59" stop-color="#979494"/>
</linearGradient>
<linearGradient id="paint6_linear_2014_1297" x1="22.2661" y1="2" x2="22.2661" y2="39.8744" gradientUnits="userSpaceOnUse">
<stop offset="0.135" stop-color="#4E0101"/>
<stop offset="0.89" stop-color="#685858"/>
</linearGradient>
</defs>
</svg>
