<svg width="127" height="118" viewBox="0 0 127 118" fill="none" xmlns="http://www.w3.org/2000/svg">
<path d="M24.8803 37.964L37.7129 11.7891C38.0759 11.0488 37.8462 10.1545 37.1715 9.68069V9.68069C36.7609 9.3924 36.2428 9.30325 35.7595 9.43777L33.0864 10.1818C31.9496 10.4982 30.9613 11.2065 30.2964 12.1814L28.1251 15.3651C27.4657 16.3319 27.1663 17.4993 27.2791 18.664L27.667 22.6721C27.7499 23.5289 27.6102 24.3926 27.2614 25.1796L22.0786 36.8739L20.0737 41.364C19.7368 42.1185 20.0324 43.0053 20.7547 43.4066V43.4066C21.5922 43.872 22.6482 43.4984 23.0066 42.6098L24.8803 37.964Z" fill="url(#paint0_linear_2101_139)" stroke="url(#paint1_linear_2101_139)" stroke-width="3"/>
<path d="M8.46777 8.22875L11.3306 2.78747C11.645 2.18993 12.3817 1.95667 12.9827 2.26435V2.26435C13.5609 2.56038 13.8101 3.25448 13.552 3.85067L11.6417 8.2647C11.3949 8.83506 11.6332 9.49909 12.1864 9.7823V9.7823C12.7963 10.0945 13.5428 9.8229 13.8095 9.19186L15.4074 5.41114C15.6775 4.77206 16.4462 4.51374 17.0474 4.85999V4.85999C17.5529 5.15112 17.7619 5.77355 17.5345 6.31076L15.6384 10.7911C15.402 11.3495 15.6318 11.9959 16.1675 12.28V12.28C16.7554 12.5916 17.4845 12.3506 17.7708 11.75L19.6432 7.82211C19.9476 7.18351 20.7276 6.93417 21.346 7.27781V7.27781C21.894 7.58234 22.1241 8.25113 21.8795 8.82836L19.4855 14.4774L17.6478 17.879C17.073 18.9429 15.7448 19.3396 14.6808 18.7652V18.7652C13.5749 18.1682 12.1946 18.6223 11.6592 19.7593L4.80331 34.3188C4.40286 35.1692 3.37768 35.5189 2.54096 35.0906V35.0906C1.74419 34.6827 1.41323 33.7173 1.79215 32.9063L8.75304 18.0089C9.30786 16.8215 8.96195 15.408 7.92149 14.611V14.611C6.88483 13.817 6.53718 12.4103 7.08455 11.2247L8.46777 8.22875Z" fill="url(#paint2_linear_2101_139)" stroke="#7D7D7D" stroke-width="3"/>
<path d="M53.1866 92.5908L68.0269 80.8967H70.5529L59.1859 94.15L57.6071 102.206L66.4482 117.278H57.6071L51.2921 99.3473L53.1866 92.5908Z" fill="url(#paint3_linear_2101_139)"/>
<path d="M88.5595 56.4937L82.0137 77.6109L70.8094 86.7412L50.394 79.8165L35.4874 61.9418L34.1392 43.9985L41.2689 23.2911L51.5166 8.69527L65.8205 18.738L79.9073 37.7804L88.5595 56.4937Z" fill="url(#paint4_linear_2101_139)" stroke="url(#paint5_linear_2101_139)"/>
<path d="M70.5174 86.5362L65.7577 67.5551M51.0197 8.78221L56.4102 30.2789M56.4102 30.2789L40.9769 23.0862M56.4102 30.2789L64.7398 18.415M56.4102 30.2789L60.9979 48.574M60.9979 48.574L80.3172 37.1965M60.9979 48.574L65.7577 67.5551M60.9979 48.574L47.7735 45.9943L34.5491 43.4146M65.7577 67.5551L36.0712 62.3517M65.7577 67.5551L88.5595 56.4936" stroke="#386524" stroke-opacity="0.3" stroke-width="3"/>
<path d="M61.8286 50.9459L58.8788 72.8567L65.1997 85.8545L86.6334 88.1653L107.678 78.2246L116.453 62.5152L118.701 40.7305L115.548 23.1773L98.3459 26.2672L77.5531 37.6121L61.8286 50.9459Z" fill="url(#paint6_linear_2101_139)" stroke="url(#paint7_linear_2101_139)"/>
<path d="M65.5508 85.7914L77.8571 70.5765M115.962 23.4653L102.025 40.6967M102.025 40.6967L119.052 40.6674M102.025 40.6967L99.4622 26.429M102.025 40.6967L90.1634 55.3616M90.1634 55.3616L77.427 36.91M90.1634 55.3616L77.8571 70.5765M90.1634 55.3616L103.245 58.5874L116.327 61.8131M77.8571 70.5765L106.976 78.3506M77.8571 70.5765L61.8286 50.9458" stroke="#386524" stroke-opacity="0.3" stroke-width="3"/>
<defs>
<linearGradient id="paint0_linear_2101_139" x1="33.0055" y1="41.3121" x2="24.9697" y2="12.4409" gradientUnits="userSpaceOnUse">
<stop stop-color="#7D7D7D"/>
<stop offset="1" stop-color="#D9D9D9"/>
</linearGradient>
<linearGradient id="paint1_linear_2101_139" x1="33.0055" y1="41.3121" x2="24.9697" y2="12.4409" gradientUnits="userSpaceOnUse">
<stop offset="0.605" stop-color="#727272"/>
<stop offset="1" stop-color="#A0A0A0"/>
</linearGradient>
<linearGradient id="paint2_linear_2101_139" x1="13.4774" y1="1.85408" x2="10.3009" y2="36.446" gradientUnits="userSpaceOnUse">
<stop stop-color="#D9D9D9"/>
<stop offset="1" stop-color="#737373"/>
</linearGradient>
<linearGradient id="paint3_linear_2101_139" x1="60.9225" y1="80.8967" x2="60.9225" y2="117.278" gradientUnits="userSpaceOnUse">
<stop offset="0.31" stop-color="#338E4E"/>
<stop offset="0.59" stop-color="#0F5B28"/>
<stop offset="0.87" stop-color="#054D40"/>
</linearGradient>
<linearGradient id="paint4_linear_2101_139" x1="77.9351" y1="27.2436" x2="44.1177" y2="75.41" gradientUnits="userSpaceOnUse">
<stop stop-color="#74C827"/>
<stop offset="1" stop-color="#108B7A"/>
</linearGradient>
<linearGradient id="paint5_linear_2101_139" x1="77.9351" y1="27.2436" x2="44.1177" y2="75.41" gradientUnits="userSpaceOnUse">
<stop stop-color="#74C827"/>
<stop offset="1" stop-color="#148E78"/>
</linearGradient>
<linearGradient id="paint6_linear_2101_139" x1="83.7767" y1="28.8841" x2="94.1812" y2="86.8095" gradientUnits="userSpaceOnUse">
<stop stop-color="#74C827"/>
<stop offset="1" stop-color="#108B7A"/>
</linearGradient>
<linearGradient id="paint7_linear_2101_139" x1="83.7767" y1="28.8841" x2="94.1812" y2="86.8095" gradientUnits="userSpaceOnUse">
<stop stop-color="#74C827"/>
<stop offset="1" stop-color="#148E78"/>
</linearGradient>
</defs>
</svg>
