<svg width="131" height="131" viewBox="0 0 131 131" fill="none" xmlns="http://www.w3.org/2000/svg">
<path d="M62.9059 105.956L76.5238 95.2249H78.8417L68.411 107.386L66.9623 114.779L75.0751 128.61H66.9623L61.1675 112.156L62.9059 105.956Z" fill="url(#paint0_linear_2014_1113)"/>
<path d="M95.365 72.832L89.3584 92.2097L79.077 100.588L60.3433 94.2336L46.6646 77.8313L45.4275 61.3661L51.9699 42.3644L61.3734 28.9709L74.4991 38.1864L87.4255 55.6601L95.365 72.832Z" fill="url(#paint1_linear_2014_1113)" stroke="url(#paint2_linear_2014_1113)"/>
<path d="M78.8094 100.4L74.4417 82.9823M60.9177 29.0507L65.8642 48.7767M65.8642 48.7767L51.7022 42.1764M65.8642 48.7767L73.5076 37.8901M65.8642 48.7767L70.074 65.5647M70.074 65.5647L87.8019 55.1244M70.074 65.5647L74.4417 82.9823M70.074 65.5647L57.9389 63.1975L45.8038 60.8304M74.4417 82.9823L47.2006 78.2075M74.4417 82.9823L95.3652 72.832" stroke="#386524" stroke-opacity="0.3" stroke-width="3"/>
<path d="M70.8362 67.7412L68.1294 87.8471L73.9296 99.7743L93.5977 101.895L112.909 92.7729L120.961 78.3576L123.024 58.3673L120.131 42.26L104.345 45.0953L85.2654 55.5058L70.8362 67.7412Z" fill="url(#paint3_linear_2014_1113)" stroke="url(#paint4_linear_2014_1113)"/>
<path d="M74.2515 99.7164L85.5441 85.7548M120.51 42.5243L107.721 58.3363M107.721 58.3363L123.346 58.3094M107.721 58.3363L105.369 45.2439M107.721 58.3363L96.8367 71.7932M96.8367 71.7932L85.1494 54.8615M96.8367 71.7932L85.5441 85.7548M96.8367 71.7932L108.841 74.7532L120.845 77.7133M85.5441 85.7548L112.265 92.8886M85.5441 85.7548L70.8359 67.7412" stroke="#386524" stroke-opacity="0.3" stroke-width="3"/>
<path d="M59.8266 106.169L74.2724 94.7857H76.7313L65.6664 107.687L64.1296 115.528L72.7356 130.2H64.1296L57.9824 112.746L59.8266 106.169Z" fill="url(#paint5_linear_2014_1113)"/>
<path d="M94.2595 71.0314L87.8877 91.5873L76.9812 100.475L57.1084 93.7342L42.5981 76.3347L41.2858 58.8683L48.2259 38.7114L58.2012 24.5035L72.125 34.2793L85.8373 52.8155L94.2595 71.0314Z" fill="url(#paint6_linear_2014_1113)" stroke="url(#paint7_linear_2014_1113)"/>
<path d="M76.6968 100.275L72.0636 81.7988M57.7173 24.5882L62.9646 45.5134M62.9646 45.5134L47.9416 38.5119M62.9646 45.5134L71.0728 33.9649M62.9646 45.5134L67.4304 63.3222M67.4304 63.3222L86.2361 52.2472M67.4304 63.3222L72.0636 81.7988M67.4304 63.3222L54.5575 60.8111L41.6846 58.3M72.0636 81.7988L43.1662 76.7337M72.0636 81.7988L94.2593 71.0313" stroke="#386524" stroke-opacity="0.3" stroke-width="3"/>
<path d="M68.239 65.631L65.3676 86.9594L71.5205 99.6118L92.3844 101.861L112.87 92.1846L121.412 76.8929L123.6 55.6872L120.53 38.6006L103.786 41.6083L83.5455 52.6517L68.239 65.631Z" fill="url(#paint8_linear_2014_1113)" stroke="url(#paint9_linear_2014_1113)"/>
<path d="M71.8622 99.5504L83.8414 84.7399M120.933 38.881L107.367 55.6543M107.367 55.6543L123.941 55.6258M107.367 55.6543L104.872 41.7659M107.367 55.6543L95.8205 69.9294M95.8205 69.9294L83.4227 51.9683M95.8205 69.9294L83.8414 84.7399M95.8205 69.9294L108.555 73.0694L121.289 76.2094M83.8414 84.7399L112.187 92.3074M83.8414 84.7399L68.2389 65.631" stroke="#386524" stroke-opacity="0.3" stroke-width="3"/>
<ellipse cx="25.2846" cy="24.6608" rx="13.8223" ry="13.9118" transform="rotate(-90 25.2846 24.6608)" fill="url(#paint10_linear_2014_1113)"/>
<path d="M22.9554 4.41994C23.9711 2.52765 26.6848 2.52765 27.7005 4.41994C28.6635 6.21384 27.364 8.38629 25.328 8.38629C23.2919 8.38629 21.9924 6.21384 22.9554 4.41994Z" fill="url(#paint11_linear_2014_1113)"/>
<path d="M11.9517 9.45731C11.6612 7.32938 13.8566 5.73434 15.7906 6.66819C17.6241 7.55348 17.8497 10.0749 16.2025 11.2716C14.5554 12.4683 12.2271 11.4746 11.9517 9.45731Z" fill="#FCDB05"/>
<path d="M27.7004 44.7843C26.6846 46.6766 23.971 46.6766 22.9552 44.7843C21.9923 42.9904 23.2918 40.8179 25.3278 40.8179C27.3638 40.8179 28.6633 42.9904 27.7004 44.7843Z" fill="url(#paint12_linear_2014_1113)"/>
<path d="M5.7032 20.0174C4.21742 18.4666 5.05598 15.8858 7.16953 15.5045C9.17321 15.143 10.8378 17.0502 10.2086 18.9866C9.57943 20.923 7.11174 21.4875 5.7032 20.0174Z" fill="#FCDB05"/>
<path d="M6.54313 32.1033C4.42957 31.722 3.59101 29.1412 5.0768 27.5904C6.48534 26.1203 8.95302 26.6848 9.58219 28.6212C10.2114 30.5576 8.5468 32.4648 6.54313 32.1033Z" fill="#FCDB05"/>
<path d="M15.5221 42.396C13.588 43.3299 11.3927 41.7348 11.6832 39.6069C11.9585 37.5896 14.2868 36.5959 15.934 37.7926C17.5811 38.9894 17.3555 41.5107 15.5221 42.396Z" fill="#FCDB05"/>
<path d="M38.7282 9.36789C39.0187 7.23996 36.8233 5.64493 34.8893 6.57877C33.0558 7.46406 32.8302 9.98543 34.4774 11.1822C36.1246 12.3789 38.4528 11.3852 38.7282 9.36789Z" fill="#FFCE31"/>
<path d="M44.977 19.9279C46.4628 18.3771 45.6242 15.7963 43.5106 15.415C41.507 15.0535 39.8424 16.9607 40.4716 18.8971C41.1008 20.8335 43.5684 21.3981 44.977 19.9279Z" fill="#FFCE31"/>
<path d="M44.1363 32.0138C46.2499 31.6326 47.0884 29.0517 45.6026 27.5009C44.1941 26.0308 41.7264 26.5954 41.0973 28.5317C40.4681 30.4681 42.1326 32.3753 44.1363 32.0138Z" fill="#FFCE31"/>
<path d="M35.1574 42.3066C37.0914 43.2404 39.2868 41.6454 38.9963 39.5174C38.7209 37.5001 36.3927 36.5064 34.7455 37.7032C33.0983 38.8999 33.3239 41.4213 35.1574 42.3066Z" fill="#FFCE31"/>
<defs>
<linearGradient id="paint0_linear_2014_1113" x1="70.0046" y1="95.2249" x2="70.0046" y2="128.61" gradientUnits="userSpaceOnUse">
<stop offset="0.31" stop-color="#338E4E"/>
<stop offset="0.59" stop-color="#0F5B28"/>
<stop offset="0.87" stop-color="#054D40"/>
</linearGradient>
<linearGradient id="paint1_linear_2014_1113" x1="85.6158" y1="45.9913" x2="54.5841" y2="90.1901" gradientUnits="userSpaceOnUse">
<stop stop-color="#74C827"/>
<stop offset="1" stop-color="#108B7A"/>
</linearGradient>
<linearGradient id="paint2_linear_2014_1113" x1="85.6158" y1="45.9913" x2="54.5841" y2="90.1901" gradientUnits="userSpaceOnUse">
<stop stop-color="#74C827"/>
<stop offset="1" stop-color="#148E78"/>
</linearGradient>
<linearGradient id="paint3_linear_2014_1113" x1="90.9764" y1="47.4967" x2="100.524" y2="100.651" gradientUnits="userSpaceOnUse">
<stop stop-color="#74C827"/>
<stop offset="1" stop-color="#108B7A"/>
</linearGradient>
<linearGradient id="paint4_linear_2014_1113" x1="90.9764" y1="47.4967" x2="100.524" y2="100.651" gradientUnits="userSpaceOnUse">
<stop stop-color="#74C827"/>
<stop offset="1" stop-color="#148E78"/>
</linearGradient>
<linearGradient id="paint5_linear_2014_1113" x1="67.3568" y1="94.7857" x2="67.3568" y2="130.2" gradientUnits="userSpaceOnUse">
<stop offset="0.31" stop-color="#338E4E"/>
<stop offset="0.59" stop-color="#0F5B28"/>
<stop offset="0.87" stop-color="#054D40"/>
</linearGradient>
<linearGradient id="paint6_linear_2014_1113" x1="83.9175" y1="42.5588" x2="50.9991" y2="89.4448" gradientUnits="userSpaceOnUse">
<stop stop-color="#74C827"/>
<stop offset="1" stop-color="#108B7A"/>
</linearGradient>
<linearGradient id="paint7_linear_2014_1113" x1="83.9175" y1="42.5588" x2="50.9991" y2="89.4448" gradientUnits="userSpaceOnUse">
<stop stop-color="#74C827"/>
<stop offset="1" stop-color="#148E78"/>
</linearGradient>
<linearGradient id="paint8_linear_2014_1113" x1="89.6037" y1="44.1556" x2="99.7317" y2="100.541" gradientUnits="userSpaceOnUse">
<stop stop-color="#74C827"/>
<stop offset="1" stop-color="#108B7A"/>
</linearGradient>
<linearGradient id="paint9_linear_2014_1113" x1="89.6037" y1="44.1556" x2="99.7317" y2="100.541" gradientUnits="userSpaceOnUse">
<stop stop-color="#74C827"/>
<stop offset="1" stop-color="#148E78"/>
</linearGradient>
<linearGradient id="paint10_linear_2014_1113" x1="25.3345" y1="10.749" x2="25.2346" y2="38.5726" gradientUnits="userSpaceOnUse">
<stop offset="0.5" stop-color="#FCDB04"/>
<stop offset="0.5" stop-color="#FFCE31"/>
</linearGradient>
<linearGradient id="paint11_linear_2014_1113" x1="20.1299" y1="5.59086" x2="30.526" y2="5.59086" gradientUnits="userSpaceOnUse">
<stop offset="0.5" stop-color="#FCDB05"/>
<stop offset="0.5" stop-color="#FFCE31"/>
</linearGradient>
<linearGradient id="paint12_linear_2014_1113" x1="20.1297" y1="43.6134" x2="30.5259" y2="43.6134" gradientUnits="userSpaceOnUse">
<stop offset="0.5" stop-color="#FCDB05"/>
<stop offset="0.5" stop-color="#FFCE31"/>
</linearGradient>
</defs>
</svg>
